<?xml version="1.0" encoding="UTF-8"?>
<svg id="_Слой_2" data-name="Слой 2" xmlns="http://www.w3.org/2000/svg" viewBox="0 0 1735.28 108.23">
  <defs>
    <style>
      .cls-1 {
        fill: #fff;
        stroke-width: 0px;
      }

      .cls-2 {
        opacity: .6;
      }
    </style>
  </defs>
  <g id="_Слой_1-2" data-name="Слой 1">
    <g class="cls-2">
      <path class="cls-1" d="m18.88,67.61c-2.36-.01-5.08-.43-7.68-1.49-3.43-1.41-6.07-3.76-8.03-6.88-1.7-2.7-2.66-5.66-3.01-8.81-.48-4.29.12-8.43,1.93-12.36,1.99-4.31,5.28-7.24,9.63-9.04,1.46-.6,2.98-1.01,4.55-1.2,1.41-.17,2.84-.2,4.26-.12,1.56.08,3.11.29,4.62.71,1.37.38,2.68.9,3.94,1.59.88.48,1.74.99,2.53,1.62.74.59,1.43,1.22,2.07,1.93.64.72,1.22,1.49,1.76,2.3.54.82.99,1.68,1.39,2.57.57,1.26,1.01,2.56,1.31,3.91.19.86.34,1.72.41,2.6.06.77.12,1.53.14,2.3.08,2.5-.23,4.94-.95,7.32-.5,1.67-1.21,3.25-2.15,4.72-2.6,4.04-6.23,6.64-10.9,7.79-1.35.33-3.53.56-5.82.56Zm-7.29-19.75c-.02,1.05.06,2.1.24,3.14.37,2.17,1.21,4.08,2.85,5.6,1.1,1.02,2.4,1.58,3.87,1.75,1.25.15,2.46-.02,3.63-.52.65-.28,1.27-.63,1.78-1.11.47-.43.88-.92,1.25-1.44.78-1.11,1.28-2.33,1.58-3.65.16-.71.23-1.44.29-2.16.06-.67.11-1.34.12-2.01,0-.45-.04-.91-.07-1.36-.03-.6-.1-1.2-.22-1.79-.19-1-.48-1.97-.92-2.89-.52-1.09-1.14-2.09-2.1-2.86-.59-.47-1.22-.85-1.93-1.11-.7-.25-1.42-.42-2.17-.48-.63-.05-1.25-.01-1.85.1-1.61.29-2.92,1.12-3.96,2.38-1.1,1.32-1.75,2.85-2.09,4.53-.26,1.28-.29,2.58-.3,3.88Z"/>
      <path class="cls-1" d="m94.44,54.09c1.77.01,3.59.01,5.41.06.18,0,.25.07.28.23.12.67.27,1.34.48,1.99.4,1.2,1.14,2.05,2.35,2.5,1.8.66,3.62.88,5.48.35,1.6-.46,2.73-1.43,3.19-3.08.06-.2.05-.36-.05-.55-.15-.28-.27-.58-.41-.87-.21-.46-.55-.79-1.01-1.02-1.8-.89-3.7-1.5-5.63-2.04-1.96-.55-3.93-1.03-5.85-1.69-1.79-.62-3.5-1.4-5.06-2.49-1.41-.99-2.36-2.32-2.94-3.93-.77-2.16-.76-4.35-.17-6.54.56-2.08,1.56-3.9,3.15-5.37,1.36-1.26,2.94-2.15,4.67-2.78,2.51-.91,5.12-1.19,7.77-1.18,2.57.01,5.07.38,7.49,1.27,1.72.63,3.28,1.53,4.58,2.82,1.52,1.5,2.37,3.35,2.87,5.4.2.84.33,1.68.41,2.54.02.2-.05.23-.22.23-1.13,0-2.25,0-3.38,0-2.28,0-4.56.01-6.85.02-.2,0-.27-.04-.3-.26-.19-1.33-.88-2.35-2.04-3-2.15-1.19-4.33-1.18-6.5,0-1.44.78-1.27,2.29-.63,3.15.36.48.82.83,1.37,1.06,1.98.83,4.04,1.36,6.12,1.88,2.01.5,4.03.96,5.98,1.69,1.52.56,2.95,1.29,4.28,2.24,1.8,1.28,2.89,3.02,3.39,5.15.37,1.58.36,3.16.17,4.76-.17,1.46-.57,2.83-1.3,4.1-.96,1.67-2.28,2.99-3.92,4-2.57,1.58-5.38,2.4-8.36,2.7-2.35.24-4.7.25-7.05,0-3.11-.34-6.02-1.29-8.6-3.12-2.46-1.74-3.94-4.12-4.63-7.01-.22-.93-.34-1.88-.36-2.84,0-.21.04-.29.27-.3,1.82-.04,3.65-.05,5.53-.06Z"/>
      <path class="cls-1" d="m55.31,28.58c4.24,0,8.49,0,12.73,0,1.2,0,2.39.01,3.59,0,.23,0,.3.05.3.29-.01,2.99-.01,5.98,0,8.97,0,.24-.07.29-.3.29-2.65-.01-5.3-.02-7.96-.01-.73,0-1.46.02-2.19.04-.43,0-.35.01-.36.35-.11,6.85-.02,13.71-.04,20.56,0,2.47-.03,4.95-.08,7.42,0,.25-.08.3-.32.3-3.2-.01-6.4-.01-9.6-.02-.43,0-.85-.04-1.28-.03-.22,0-.26-.07-.26-.28-.01-2.96-.04-5.91-.04-8.87,0-6.36,0-12.73-.01-19.09,0-.41.04-.36-.36-.37-3.35-.05-6.7-.03-10.05-.02-.37,0-.36,0-.36-.36.04-2.94.06-5.88-.01-8.82,0-.34,0-.34.33-.34,5.42,0,10.85,0,16.27,0,0,0,0-.02,0-.02Z"/>
      <path class="cls-1" d="m86.36,47.68c.03,6.2,0,12.41-.03,18.61,0,.09,0,.18,0,.26.02.19-.06.25-.25.25-3.62-.01-7.23.07-10.85-.05-.06,0-.11,0-.17,0-.31-.01-.31-.01-.31-.33,0-3.91.01-7.83.01-11.74,0-8.58,0-17.16.01-25.74,0-.35-.08-.35.35-.35,3.65,0,7.3,0,10.94-.02.26,0,.23.14.23.3.02,5.24.04,10.48.06,15.72,0,1.04,0,2.07,0,3.11Z"/>
    </g>
    <g class="cls-2">
      <g>
        <path class="cls-1" d="m293.95,19.71c9.15,0,18.31,0,27.46-.01.48,0,.64.04.64.6-.02,19.99-.02,39.98,0,59.97,0,.55-.16.6-.64.6-9.15-.02-18.31-.01-27.46-.01V19.71Zm5.3,30.72c0,3.57,0,7.15,0,10.72,0,.48.05.71.63.71,5.46-.02,10.92-.02,16.38,0,.53,0,.63-.19.62-.65-.03-1.23-.05-2.47,0-3.7.03-.65-.13-.85-.82-.84-3.32.04-6.64,0-9.96.03-.57,0-.74-.15-.71-.72.05-.8.05-1.61,0-2.41-.04-.63.16-.79.79-.79,2.87.03,5.74,0,8.61.03.52,0,.69-.13.68-.67-.04-1.16-.04-2.32,0-3.47.02-.59-.14-.76-.74-.75-2.87.03-5.74,0-8.61.03-.54,0-.77-.1-.73-.69.06-.78.05-1.56,0-2.34-.04-.66.12-.9.85-.89,3.32.04,6.64,0,9.96.03.53,0,.69-.15.67-.68-.04-1.23-.04-2.47,0-3.7.02-.55-.18-.66-.69-.66-5.41.02-10.82.02-16.23,0-.64,0-.72.23-.72.77.02,3.55.01,7.1.01,10.64Z"/>
        <path class="cls-1" d="m229.33,80.85h-28.09c0-20.15,0-40.31-.01-60.46,0-.57.13-.7.69-.69,9.14.02,18.27.01,27.41.01v61.14Zm-2.32-19.01c-.24-.33-.38-.53-.53-.73-2.7-3.6-5.39-7.21-8.1-10.79-.31-.41-.33-.65,0-1.07,2.55-3.18,5.06-6.38,7.58-9.59.13-.16.35-.29.33-.62-2.29,0-4.57,0-6.85,0-.36,0-.46.25-.63.46-2.29,2.96-4.58,5.93-6.87,8.89-.11.14-.15.39-.45.34,0-3.02,0-6.04,0-9.06,0-.47-.09-.65-.61-.64-1.68.03-3.37.03-5.06,0-.43,0-.55.12-.55.55.01,7.24.01,14.49,0,21.73,0,.43.13.55.55.55,1.66-.02,3.32-.04,4.98,0,.6.02.69-.2.69-.73-.02-2.97-.01-5.94-.01-8.9,0-.31,0-.63,0-1.13.27.35.43.53.57.73,2.34,3.18,4.68,6.35,7.03,9.53.17.23.29.5.68.5,2.36-.02,4.72,0,7.24,0Z"/>
        <path class="cls-1" d="m263,19.71c9.36,0,18.72,0,28.09,0,.01.28.03.55.03.83,0,19.83,0,39.66,0,59.49,0,.28-.02.55-.03.83h-28.09c0-.25.02-.5.02-.75,0-19.88,0-39.76,0-59.64,0-.25-.02-.5-.02-.75Zm18.68,30.44c-.32-.3-.51-.46-.68-.63-2.91-2.85-5.93-5.61-8.69-8.59-1.45-1.56-2.98-2.18-5.01-1.91-.4.05-.55.11-.55.55.01,7.25.01,14.49,0,21.74,0,.43.12.56.55.55,1.48-.02,2.97-.04,4.45,0,.58.02.76-.12.76-.74-.03-3.32-.02-6.64-.01-9.96,0-.24-.07-.49.1-.76.17.16.32.3.46.43,3.18,3.12,6.42,6.18,9.51,9.38,1.2,1.24,2.4,1.95,4.12,1.64.05,0,.1,0,.15,0,.52.09.62-.17.61-.64-.01-7.19-.01-14.39,0-21.58,0-.46-.11-.61-.59-.6-1.41.03-2.82.06-4.23,0-.8-.04-.98.21-.97.98.04,3.32.02,6.63.02,10.16Z"/>
        <path class="cls-1" d="m260.28,80.85h-28.09c-.01-.28-.03-.55-.03-.83,0-19.83,0-39.66,0-59.49,0-.28.02-.55.03-.83,9.36,0,18.72,0,28.09,0,0,.25-.03.5-.03.75,0,19.88,0,39.76,0,59.64,0,.25.02.5.03.75Zm-2.04-30.55c.02-6.83-5.08-11.89-12.01-11.91-6.93-.02-12.07,5-12.08,11.83-.02,6.89,5.08,11.95,12.04,11.96,6.9.01,12.04-5.04,12.06-11.88Z"/>
      </g>
      <path class="cls-1" d="m252.04,50.28c0,2.83-1.4,5.17-3.64,6.09-3.4,1.41-7.11-.64-7.88-4.37-.27-1.3-.25-2.6.12-3.88.78-2.72,3.05-4.46,5.7-4.38,2.68.09,4.84,1.94,5.49,4.66.15.62.18,1.24.21,1.87Z"/>
    </g>
    <g class="cls-2">
      <g>
        <path class="cls-1" d="m1134.23,99.63v-4.48c1.3.69,2.85,1.2,4.33,1.32.51.05.99.05,1.45.03,1.5-.1,2.34-.51,2.34-1.27,0-.97-1.15-1.45-3.39-2.29-3.08-1.17-5.07-2.44-5.07-5.81s2.78-5.55,6.95-5.55c1.83,0,3.67.36,4.89.87v4.3c-1.1-.69-2.83-1.15-4.51-1.15s-2.75.59-2.75,1.5c0,.87,1.07,1.45,3.21,2.32,3.08,1.22,5.2,2.52,5.2,5.78s-2.55,5.42-7.1,5.42c-2.09,0-4.18-.41-5.55-.99Z"/>
        <path class="cls-1" d="m1155.65,96.71c1.43,0,2.8-.76,3.13-1.02v4.05c-.36.18-1.76.89-3.85.89-4.15,0-6.85-2.85-6.85-6.72s2.7-6.72,6.85-6.72c2.09,0,3.41.69,3.77.87v4.07c-.61-.48-1.91-1.02-3.06-1.02-1.73,0-2.98,1.07-2.98,2.8s1.17,2.8,2.98,2.8Z"/>
        <path class="cls-1" d="m1165.48,81.94v5.93c0,.59-.03,1.2-.05,1.45.74-1.02,2.19-2.14,3.95-2.14,2.73,0,4.46,1.68,4.46,5.14v7.95h-4.53v-7.26c0-.99-.41-1.76-1.38-1.76-1.43,0-2.34,1.1-2.34,2.62v6.39h-4.56v-18.34h4.46Z"/>
        <path class="cls-1" d="m1178.95,81.55c1.48,0,2.42.89,2.42,2.34s-.94,2.37-2.42,2.37-2.45-.92-2.45-2.37.94-2.34,2.45-2.34Zm2.27,5.98v12.73h-4.56v-12.73h4.56Z"/>
        <path class="cls-1" d="m1188.34,87.54l.13,1.3c.05.38-.03.66-.1.81h.05c.56-1.17,2.27-2.47,4.15-2.47,2.73,0,4.46,1.68,4.46,5.14v7.95h-4.53v-7.26c0-.99-.41-1.76-1.38-1.76-1.43,0-2.34,1.1-2.34,2.62v6.39h-4.56v-12.73h4.12Z"/>
        <path class="cls-1" d="m1213.04,100.27h-4.1l-.1-.99c-.03-.48.05-.82.05-.82h-.05c-.56,1.22-2.19,2.17-3.97,2.17-3.23,0-5.93-2.44-5.93-6.72s2.7-6.72,5.83-6.72c1.76,0,3.11.71,3.77,1.6h.05s-.08-.33-.08-1.07v-5.78h4.53v18.34Zm-9.86-6.37c0,1.78,1.12,2.96,2.57,2.96,1.35,0,2.57-1.04,2.57-2.96s-1.22-2.95-2.57-2.95c-1.45,0-2.57,1.15-2.57,2.95Z"/>
        <path class="cls-1" d="m1215.99,81.94h4.53v13.47c0,1.09.54,1.4,1.17,1.4.51,0,1.07-.2,1.35-.33v3.74c-.41.18-1.43.41-2.78.41-2.32,0-4.28-1.12-4.28-4.2v-14.49Z"/>
        <path class="cls-1" d="m1236.54,93.14c0,.74-.1,1.45-.13,1.68h-7.77c.18,1.35,1.32,2.04,3.06,2.04,1.86,0,3.79-.56,4.3-.82v3.79c-.69.33-2.39.79-4.74.79-4.56,0-7.33-2.83-7.33-6.72s2.85-6.72,6.6-6.72c4.02,0,6.01,2.8,6.01,5.96Zm-6.06-2.47c-1.2,0-1.83.92-1.86,2.06h3.64c.03-1.15-.56-2.06-1.78-2.06Z"/>
        <path class="cls-1" d="m1238.6,87.54h4.12c0,.33.05.66.08.97.03.33.03.59.08.79.76-1.15,2.11-2.11,3.67-2.11.41,0,.79.05.81.05v4.43s-.36-.18-.92-.18c-1.66,0-3.31,1.2-3.31,3.44v5.35h-4.53v-12.73Z"/>
      </g>
      <g>
        <path class="cls-1" d="m1190.37.97c-20.56,0-37.23,16.67-37.23,37.23s16.67,37.23,37.23,37.23,37.23-16.67,37.23-37.23S1210.93.97,1190.37.97Zm0,56.95c-10.59,0-19.17-8.58-19.17-19.17s8.58-19.17,19.17-19.17,19.17,8.58,19.17,19.17-8.58,19.17-19.17,19.17Z"/>
        <path class="cls-1" d="m1168.49,68.32c6.17,4.65,14.81,7.11,21.88,7.11,7.51,0,17.97-3.54,21.88-7.11,0,0,0,0,0,0l-21.89-31.41-21.88,31.41s0,0,0,0Z"/>
      </g>
    </g>
    <g class="cls-2">
      <g>
        <g>
          <path class="cls-1" d="m773.91,44.83v-.75c0-1.85-.86-3.4-2.69-3.4-2.03,0-2.94,1.37-2.94,2.78,0,6.22,15.43,3.18,15.43,14.7,0,6.71-4.52,9.71-12.84,9.71-7.82,0-12.18-2.34-12.18-8.87v-1.1h9.13v.75c0,2.69,1.27,3.66,3.1,3.66,1.93,0,3.05-1.32,3.05-3.04,0-6.22-14.82-3.13-14.82-14.3,0-6.36,3.91-9.84,11.87-9.84s11.72,2.96,11.72,9.71h-8.83Z"/>
          <polygon class="cls-1" points="786.7 67.25 786.7 35.74 796.14 35.74 796.14 67.25 786.7 67.25 786.7 67.25"/>
          <path class="cls-1" d="m812.42,50.13h12.17v17.13h-6.39l-.21-2.78h-.1c-1.27,2.69-4.62,3.4-7.82,3.4-9.59,0-10.45-5.96-10.45-16.37s2.33-16.37,13.49-16.37c6.7,0,11.47,2.96,11.47,10.59h-9.13c0-1.59-.15-2.83-.51-3.66-.35-.89-1.06-1.37-2.18-1.37-3.09,0-3.4,2.29-3.4,10.81s.31,10.81,3.2,10.81c1.98,0,3.14-1.1,3.2-6.62h-3.35v-5.56h0Z"/>
          <polygon class="cls-1" points="828.1 35.74 841.6 35.74 845.4 54.41 845.5 54.41 849.31 35.74 862.8 35.74 862.8 67.25 853.98 67.25 853.98 43.77 853.87 43.77 848.85 67.25 842.05 67.25 837.03 43.77 836.93 43.77 836.93 67.25 828.1 67.25 828.1 35.74 828.1 35.74"/>
          <path class="cls-1" d="m881.43,55.56h-5.28l2.59-13.37h.1l2.59,13.37h0Zm-17.4,11.7h10.04l.96-5.52h7.51l.96,5.52h10.05l-8.83-31.51h-11.87l-8.83,31.51h0Z"/>
        </g>
        <g>
          <path class="cls-1" d="m717.07,63.76c.34-3.12,1.85-6.8,4.39-10.56,2.97-4.4,7-8.43,11.34-11.34,5.88-3.94,11.47-5.16,14.59-3.18.12.07.23.15.34.24-2.43-4.42-6.36-8.05-11.43-10.03-3.82-1.48-7.79-1.84-11.56-1.24-5.3,6.81-9.18,18.55-9.44,25.3-.17,4.2.45,7.87,1.77,10.8h0Z"/>
          <path class="cls-1" d="m712.13,51.87c.25-7.23,2.66-14.79,6.53-22.32-4.94,2.35-9.03,6.51-11.17,12.01-3.96,10.16.07,21.46,9.03,26.99-2.92-3.99-4.62-10.03-4.38-16.69h0Z"/>
          <path class="cls-1" d="m749.9,44.57c-.04,1.12-.25,2.33-.62,3.59-.71,2.44-2.01,5.11-3.83,7.81-2.97,4.41-7,8.44-11.34,11.34-2.34,1.56-4.29,2.57-6.39,3.24-.1,0-1.07.36-1.16.37-1.17.32-1.95.46-2.83.49,10.45,2.18,21.25-3.43,25.25-13.72,1.69-4.35,1.92-8.91.93-13.13h0Z"/>
          <path class="cls-1" d="m746.85,46.01c-.09-1.73-.78-3.06-1.99-3.83-2.67-1.69-7.53-.61-12.67,2.83-7.79,5.21-13.88,14.13-13.59,19.89.04.83.22,1.55.52,2.18.51.6.67.95,1.27,1.43l.61.38c2.92,1.48,7.2.4,12.25-2.98,7.79-5.21,13.88-14.13,13.59-19.89h0Z"/>
          <path class="cls-1" d="m721.01,68.88l-.61-.38c-.6-.48-.76-.83-1.27-1.43-.3-.63-.48-1.35-.52-2.18-.29-5.76,5.8-14.68,13.59-19.89,5.14-3.44,9.99-4.52,12.67-2.83,1.21.77,1.9,2.09,1.99,3.83.29,5.76-5.8,14.69-13.59,19.89-5.05,3.38-9.33,4.46-12.25,2.98h0Z"/>
        </g>
      </g>
    </g>
    <g class="cls-2">
      <path class="cls-1" d="m1384.39,0c11.66.02,21.85,8.05,24.56,19.37.39,1.64.64,3.3.67,4.99,0,.37.12.55.46.71,5.93,2.8,10.22,7.21,12.79,13.25,1.59,3.73,2.17,7.64,1.87,11.68-.76,10.12-7.65,18.89-17.39,22.06-3.61,1.18-7.3,1.5-11.06,1.02-4.23-.55-8.06-2.08-11.52-4.57-.45-.32-.38-.27-.77,0-3.07,2.2-6.44,3.69-10.16,4.35-6.26,1.11-12.18.11-17.62-3.2-6.3-3.83-10.31-9.4-11.74-16.64-1.58-7.98.33-15.17,5.57-21.43,2.33-2.78,5.17-4.92,8.46-6.45.46-.22.64-.46.66-.98.13-3.87,1.15-7.51,3-10.9,2.35-4.32,5.69-7.69,9.98-10.1,3.08-1.73,6.4-2.73,9.92-3.07.77-.07,1.55-.12,2.33-.11Zm22.64,23.87c-.24-6.28-3.84-14.24-11.85-18.59-7.74-4.2-17.27-3.5-24.32,1.73-6.59,4.89-9.1,12.32-9.08,16.84.14-.03.28-.06.41-.1,2.66-.77,5.37-1.1,8.13-.96.46.02.92.01,1.38.1.25.05.45,0,.56-.26.06-.15.16-.28.24-.41,1.18-1.94,2.46-3.8,4.02-5.46,1.22-1.3,2.56-2.44,4.18-3.22,1.43-.69,2.93-1.02,4.53-.84,1.23.14,2.37.55,3.45,1.16,1.57.89,2.88,2.11,4.07,3.45,1.43,1.63,2.64,3.42,3.73,5.28.15.25.3.34.59.3,2.41-.26,4.8-.14,7.18.31.92.17,1.82.42,2.77.67Zm2.53,3.82c-.03.23-.06.43-.09.62-.03.21-.04.42-.08.63-.65,4.23-2.23,8.07-4.8,11.48-.22.29-.26.52-.15.86.8,2.35,1.51,4.72,2.19,7.1,1.76,6.16,3.3,12.37,4.6,18.64.03.13.02.28.16.36,6.35-3.75,11.75-11.79,10.76-21.68-.92-9.19-7.17-15.57-12.61-18.01Zm-52.12,39.76c.2-.92.38-1.77.57-2.61,1.17-5.38,2.5-10.71,4.01-16,.72-2.54,1.48-5.06,2.32-7.56.11-.32.09-.55-.13-.82-.34-.43-.65-.88-.95-1.34-2.16-3.3-3.48-6.91-3.95-10.82-.09-.74-.09-.68-.69-.36-.08.04-.16.08-.23.13-4.46,2.48-7.78,6.02-9.89,10.68-2.05,4.55-2.53,9.3-1.46,14.16,1.14,5.22,3.86,9.5,8,12.87.74.6,1.51,1.16,2.41,1.68Zm24.9-.96c-.18-.17-.36-.31-.52-.47-4.7-4.72-7.21-10.42-7.51-17.07-.02-.38-.14-.56-.47-.71-2.34-1.06-4.45-2.47-6.36-4.19-.34-.31-.67-.62-1.01-.93-.18.19-.2.41-.26.61-2.27,7.12-4.16,14.34-5.74,21.64-.21.99-.4,1.98-.62,2.96-.06.26-.02.45.26.53.08.02.16.07.24.1,3.58,1.52,7.3,2.07,11.16,1.69,3.78-.37,7.22-1.65,10.37-3.75.14-.1.31-.17.45-.4Zm20.04-23.4c-.12.08-.17.1-.2.13-2.15,2.13-4.59,3.82-7.34,5.07-.3.13-.37.32-.37.62,0,1.21-.14,2.4-.36,3.59-.97,5.27-3.38,9.79-7.18,13.57-.52.52-.52.52.11.93,5.29,3.43,11.03,4.5,17.21,3.28,1.46-.29,2.87-.75,4.24-1.34.53-.23.53-.23.41-.81-.11-.57-.22-1.14-.35-1.72-1.42-6.68-3.1-13.29-5.07-19.83-.35-1.15-.71-2.29-1.09-3.49Zm-17.88,4.92c.67,0,1.48-.03,2.29-.12,1.62-.18,3.21-.52,4.76-1.03.26-.08.4-.2.35-.48-.02-.14-.01-.28-.03-.42-.18-1.69-.5-3.36-1.03-4.98-1.22-3.71-3.27-6.88-6.11-9.56-.34-.32-.35-.32-.68,0-.92.86-1.77,1.78-2.54,2.78-2.7,3.56-4.27,7.55-4.62,12.01-.04.54-.04.54.47.7,2.27.73,4.6,1.13,7.13,1.1Zm-7.52,1.45c-.13.17-.08.31-.07.45.05.94.2,1.87.4,2.78.99,4.62,3.2,8.55,6.61,11.81.49.47.39.54.95,0,3.83-3.69,6.14-8.17,6.89-13.44.07-.52.19-1.04.11-1.64-4.98,1.49-9.95,1.49-14.89.02Zm5.36-19.94c-.07-.08-.09-.11-.12-.13-2.57-1.8-5.39-3.02-8.47-3.65-.28-.06-.38.04-.49.25-.4.83-.83,1.64-1.22,2.47-1.75,3.68-3.19,7.48-4.56,11.31-.14.4-.05.65.22.93,1.83,1.94,3.9,3.54,6.27,4.76.12.06.23.17.42.1.68-6.3,3.34-11.65,7.95-16.06Zm12.05,16.09c.27,0,.42-.14.59-.23,2.32-1.23,4.36-2.82,6.15-4.74.26-.28.28-.51.16-.84-.52-1.39-1-2.8-1.53-4.19-1.23-3.24-2.59-6.43-4.19-9.51-.22-.42-.22-.43-.68-.33-2.86.59-5.5,1.71-7.92,3.33-.64.43-.62.32-.06.87,3.27,3.23,5.53,7.05,6.73,11.49.37,1.35.61,2.72.75,4.14Zm-19.6-22.3c.12.06.16.09.21.11,3.31.78,6.35,2.16,9.09,4.18.27.2.42.13.64-.03,2.69-1.96,5.66-3.32,8.9-4.11.12-.03.25-.02.32-.18-.03-.07-.06-.15-.11-.23-1.01-1.65-2.11-3.23-3.44-4.64-.96-1.03-2.02-1.93-3.29-2.56-1.82-.9-3.64-.9-5.46,0-.6.3-1.17.67-1.69,1.09-1.32,1.04-2.39,2.3-3.38,3.65-.64.87-1.23,1.76-1.8,2.72Zm-4.05,2.09c-.1-.03-.15-.06-.19-.06-.32-.02-.64-.06-.95-.06-2.42-.02-4.8.3-7.11,1.04-.88.28-.81.05-.71,1.08.34,3.64,1.51,7.01,3.47,10.09.06.1.1.23.29.25,1.5-4.2,3.16-8.35,5.21-12.34Zm27.31-.03c1.04,2.05,1.97,4.09,2.84,6.16.86,2.05,1.62,4.15,2.43,6.29.12-.15.17-.21.22-.29,2.05-3.22,3.23-6.74,3.54-10.55.03-.42.03-.43-.37-.56-2.28-.76-4.63-1.13-7.03-1.16-.51,0-1.02,0-1.62.1Z"/>
      <path class="cls-1" d="m1432.68,91.54c.18-.05.22-.15.29-.23,1.4-1.62,3.94-2.06,5.81-1.01.72.4,1.22,1,1.57,1.75.45.96.61,1.99.68,3.04.1,1.59.11,3.18-.17,4.76-.1.54-.25,1.07-.47,1.57-.69,1.58-1.92,2.41-3.62,2.54-.66.05-1.31,0-1.94-.19-.61-.18-1.14-.47-1.6-.91-.14-.13-.28-.26-.42-.38-.16.13-.1.28-.1.41,0,1.52,0,3.04,0,4.57,0,.44,0,.44-.43.45-.58,0-1.17,0-1.75,0-.26,0-.41-.06-.38-.35.01-.09,0-.18,0-.27,0-5.51,0-11.01,0-16.52,0-.07,0-.14,0-.21.01-.39.01-.4.38-.4.57,0,1.13,0,1.7,0,.28,0,.37.1.37.37,0,.33-.02.67.09,1.01Zm.03,5.15c0,.73,0,1.28,0,1.83,0,.54.11,1.05.32,1.55.49,1.15,1.53,1.75,2.86,1.67,1.14-.07,1.87-.69,2.25-1.92.04-.12.07-.24.09-.36.27-1.47.27-2.95.13-4.44-.05-.53-.16-1.05-.36-1.54-.3-.73-.81-1.23-1.59-1.42-1.72-.42-3.31.62-3.61,2.38-.14.81-.06,1.62-.08,2.25Z"/>
      <path class="cls-1" d="m1445.81,102.49c-.08.24-.04.43-.04.62,0,1.47,0,2.94,0,4.41,0,.38-.01.39-.38.39-.6,0-1.2,0-1.81,0-.26,0-.41-.06-.37-.35.01-.09,0-.18,0-.27,0-5.51,0-11.01,0-16.52,0-.07,0-.14,0-.21.01-.39.01-.4.38-.4.57,0,1.13,0,1.7,0,.28,0,.37.1.37.37,0,.33,0,.67.07.99.13.02.18-.06.23-.12,1.09-1.37,2.54-1.78,4.21-1.6,1.9.2,3.03,1.3,3.55,3.1.21.72.32,1.45.36,2.2.1,1.75.13,3.5-.27,5.23-.1.43-.25.85-.43,1.25-.71,1.5-1.91,2.27-3.55,2.4-.53.04-1.06.02-1.59-.09-.72-.15-1.38-.45-1.92-.96-.15-.14-.27-.33-.51-.42Zm-.04-5.63c0,.65,0,1.31,0,1.96,0,.18.04.35.08.52.26,1.43,1.35,2.38,2.75,2.4,1.47.02,2.35-.71,2.67-2.27.28-1.4.27-2.81.17-4.22-.04-.6-.15-1.19-.38-1.75-.3-.74-.81-1.23-1.59-1.43-1.68-.43-3.27.58-3.61,2.3-.16.82-.06,1.66-.08,2.49Z"/>
      <path class="cls-1" d="m1324.65,91.45c.22-.04.29-.2.4-.3,1.32-1.3,2.9-1.64,4.65-1.25,1.5.33,2.38,1.41,2.59,3.06.04.33.07.67.07,1.01,0,3.03,0,6.05,0,9.08,0,.09,0,.18,0,.27,0,.18-.08.25-.26.25-.69,0-1.38,0-2.07,0-.18,0-.25-.1-.25-.27,0-.14,0-.28,0-.42,0-2.71,0-5.41,0-8.12,0-.48,0-.95-.16-1.42-.21-.63-.65-1-1.28-1.14-1.41-.31-2.72.35-3.35,1.71-.28.6-.41,1.24-.41,1.9,0,2.37,0,4.74,0,7.11,0,.73.08.63-.66.64-.53,0-1.06,0-1.59,0-.22,0-.33-.07-.32-.31,0-.12,0-.25,0-.37,0-5.61,0-11.22,0-16.83,0-.09,0-.18,0-.27-.03-.29.11-.36.37-.36.55.01,1.1,0,1.65,0,.57,0,.56-.04.56.54,0,1.63,0,3.26,0,4.88,0,.19-.05.39.07.6Z"/>
      <path class="cls-1" d="m1406.71,90.16c-.1.26-.26.37-.4.51-1.14,1.17-2.28,2.33-3.42,3.49-.32.33-.32.33-.11.76,1.29,2.58,2.58,5.16,3.87,7.74.13.27.26.54.4.83-.26.1-.49.06-.71.06-.58,0-1.17-.02-1.75,0-.32.01-.47-.1-.61-.38-.77-1.61-1.56-3.21-2.35-4.82-.27-.56-.55-1.11-.82-1.67-.04-.08-.07-.16-.14-.2-.56.54-1.12,1.08-1.67,1.62-.15.14-.1.33-.1.51,0,1.43,0,2.87,0,4.3,0,.12,0,.25,0,.37,0,.17-.07.26-.25.26-.67,0-1.35,0-2.02,0-.2,0-.3-.07-.29-.28,0-.12,0-.25,0-.37,0-5.63,0-11.26,0-16.89,0-.63-.06-.59.61-.59.5,0,.99,0,1.49,0,.46,0,.46,0,.46.47,0,2.64,0,5.27,0,7.91v1.14c.27-.06.37-.23.5-.36,1.32-1.34,2.63-2.67,3.93-4.03.3-.31.59-.43,1.02-.42.76.03,1.52,0,2.34,0Z"/>
      <path class="cls-1" d="m1376.36,97.68c-1.2,0-2.41,0-3.61,0-.41,0-.41.01-.41.41,0,.68.07,1.34.31,1.98.34.88.96,1.43,1.89,1.6.81.15,1.62.15,2.39-.23.46-.23.82-.56,1.1-.98.14-.21.27-.23.48-.11.45.25.91.47,1.37.71.37.19.37.2.17.54-.62,1.03-1.48,1.75-2.65,2.07-1.34.38-2.7.41-4.04.05-1.45-.38-2.45-1.3-3-2.7-.26-.66-.42-1.35-.48-2.06-.15-1.79-.15-3.57.26-5.33.31-1.34.97-2.47,2.18-3.2.67-.4,1.4-.58,2.17-.65,1.05-.1,2.09-.07,3.09.32,1.14.44,1.9,1.26,2.34,2.39.39.99.45,2.03.5,3.08.03.53.01,1.06.01,1.59,0,.5,0,.5-.49.5-1.19,0-2.37,0-3.56,0Zm-1.22-1.91c.8,0,1.59-.01,2.39,0,.29,0,.36-.1.36-.37-.01-.43-.05-.85-.12-1.26-.29-1.74-1.25-2.46-3.01-2.29-.89.08-1.51.53-1.9,1.33-.33.7-.44,1.45-.49,2.21-.02.37,0,.38.38.38.8,0,1.59,0,2.39,0Z"/>
      <path class="cls-1" d="m1385.49,91.73c.24-.24.4-.4.55-.56,1.34-1.33,2.95-1.68,4.74-1.25,1.44.34,2.18,1.36,2.46,2.76.07.36.11.73.11,1.11,0,3.1,0,6.19,0,9.29,0,.47,0,.48-.45.48-.55,0-1.1,0-1.65,0-.45,0-.45,0-.46-.48,0-2.34,0-4.67,0-7.01,0-.72.04-1.45-.06-2.17-.15-1.09-.64-1.61-1.72-1.76-1.23-.17-2.41.48-2.99,1.67-.3.61-.45,1.26-.45,1.95,0,2.39,0,4.78,0,7.17,0,.71.04.64-.62.64-.55,0-1.1,0-1.65,0-.23,0-.33-.08-.31-.31,0-.11,0-.21,0-.32,0-4.05,0-8.1,0-12.16,0-.07,0-.14,0-.21.01-.39.01-.39.38-.4.57,0,1.13.01,1.7,0,.29-.01.36.12.36.37,0,.36.02.72.04,1.2Z"/>
      <path class="cls-1" d="m1425.01,102.05c-.26.26-.51.54-.79.78-1.5,1.27-3.19,1.45-4.98.79-1.1-.4-1.68-1.31-1.95-2.42-.09-.36-.13-.73-.13-1.11,0-3.15,0-6.3,0-9.45,0-.47,0-.48.46-.48.55,0,1.1,0,1.65,0,.45,0,.45,0,.46.48,0,2.34,0,4.67,0,7.01,0,.55,0,1.1,0,1.65.03,1.8,1.3,2.72,3.02,2.16.95-.31,1.57-1,1.94-1.91.23-.56.3-1.16.3-1.77,0-2.3,0-4.6,0-6.9,0-.12,0-.25,0-.37-.02-.24.07-.35.33-.35.64.01,1.27.01,1.91,0,.26,0,.35.1.33.34,0,.09,0,.18,0,.27,0,4.07,0,8.14,0,12.21,0,.05,0,.11,0,.16,0,.4,0,.41-.42.41-.57,0-1.13,0-1.7,0-.22,0-.32-.08-.32-.31,0-.38,0-.77,0-1.15-.04-.01-.08-.03-.12-.04Z"/>
      <path class="cls-1" d="m1339.66,99.26c.14-.36.27-.72.41-1.07.94-2.5,1.88-5,2.83-7.5.22-.58.06-.53.79-.53.62,0,1.24,0,1.83,0,.1.21,0,.35-.06.49-1.83,4.68-3.65,9.36-5.48,14.04-.26.66-.55,1.3-.94,1.9-.72,1.1-1.73,1.63-3.04,1.64-1.03,0-1.03.01-1.03-.99,0-.35,0-.71,0-1.06,0-.17.06-.27.25-.24,1.26.18,1.94-.53,2.39-1.58.06-.15.11-.31.2-.43.49-.68.36-1.34.09-2.08-1.37-3.7-2.7-7.41-4.04-11.12-.06-.16-.15-.32-.12-.55.77,0,1.55,0,2.32,0,.24,0,.28.17.34.34.3.83.6,1.67.9,2.5.75,2.08,1.5,4.16,2.24,6.24l.11.03Z"/>
      <path class="cls-1" d="m1362.82,103.97c-1.04.02-2.04-.17-2.98-.65-.86-.44-1.53-1.08-1.96-1.95-.21-.43-.21-.43.2-.61.45-.2.9-.41,1.36-.61.35-.15.36-.16.58.19.24.38.52.72.9.96,1.13.71,2.33.7,3.5.19.93-.41,1.11-1.63.42-2.38-.25-.27-.55-.45-.88-.57-.99-.38-1.98-.76-2.97-1.14-.65-.25-1.24-.59-1.77-1.06-.52-.47-.85-1.04-.98-1.72-.32-1.73.28-3.88,2.72-4.58,1.31-.37,2.62-.4,3.93-.05,1.17.31,2.07.97,2.63,2.06.17.34.17.35-.17.52-.48.23-.96.45-1.43.69-.19.1-.31.11-.42-.11-.81-1.59-2.67-1.57-3.8-1.19-.64.21-1.02.67-1.1,1.36-.08.68.22,1.16.77,1.52.61.4,1.3.64,1.99.86.66.21,1.32.39,1.96.66,2.34.96,3.18,3.71,1.77,5.82-.51.76-1.24,1.19-2.08,1.47-.71.23-1.44.35-2.19.32Z"/>
      <path class="cls-1" d="m1351.32,103.97c-1.11.02-2.2-.23-3.21-.82-.77-.45-1.33-1.09-1.73-1.89-.11-.22-.09-.35.15-.46.52-.22,1.04-.45,1.55-.69.2-.09.31-.08.43.12.87,1.52,2.4,1.83,4.02,1.43.77-.19,1.18-.64,1.25-1.27.08-.77-.22-1.35-.91-1.7-.62-.31-1.27-.54-1.92-.78-.55-.21-1.09-.41-1.64-.62-.48-.19-.92-.46-1.32-.78-1.1-.85-1.4-2.01-1.22-3.32.21-1.54,1.06-2.6,2.55-3.08,1.56-.51,3.14-.51,4.68.07.93.35,1.63.98,2.08,1.87.17.33.16.35-.18.52-.47.24-.96.46-1.43.7-.2.1-.3.07-.42-.12-.85-1.31-2.48-1.79-3.9-1.16-.55.25-.9.67-.98,1.29-.08.65.15,1.14.68,1.5.46.31.96.53,1.48.71.74.25,1.48.47,2.22.73.6.21,1.17.49,1.65.94.45.43.77.92.93,1.52.35,1.34.23,2.59-.64,3.72-.37.48-.85.8-1.39,1.04-.87.38-1.79.54-2.78.53Z"/>
      <path class="cls-1" d="m1314.36,96.12c0-1.15,0-2.3,0-3.45,0-.48,0-.48-.5-.48-.32,0-.64,0-.96,0-.18,0-.26-.07-.26-.25,0-.5,0-.99,0-1.49,0-.2.09-.29.29-.28.32,0,.64,0,.96,0,.47,0,.47,0,.48-.46,0-1.19,0-2.37,0-3.56,0-.11,0-.21,0-.32.01-.38.01-.39.38-.4.58,0,1.17,0,1.75,0,.41,0,.42,0,.42.41,0,1.22,0,2.44,0,3.66,0,.71-.07.65.66.66.57,0,1.13,0,1.7,0,.38,0,.39,0,.4.37,0,.41,0,.81,0,1.22,0,.41,0,.42-.41.42-.64,0-1.27,0-1.91,0-.43,0-.44.01-.44.45,0,2.21,0,4.43,0,6.64,0,.32.04.64.1.95.13.7.58,1.11,1.29,1.22.41.06.81.04,1.22,0,.2-.02.3.04.3.26,0,.53,0,1.06,0,1.59,0,.17-.07.25-.25.27-1.01.12-2.02.12-2.99-.2-1.1-.37-1.75-1.16-2.01-2.27-.14-.61-.2-1.22-.21-1.84,0-1.04,0-2.09,0-3.13h0Z"/>
      <path class="cls-1" d="m1411.19,92.63c.24-.1.28-.29.37-.43.58-.88,1.34-1.55,2.36-1.88.37-.12.76-.18,1.15-.17.39,0,.4,0,.4.37,0,.62,0,1.24,0,1.86,0,.26-.09.35-.34.32-.1-.01-.21,0-.32,0-1.92-.1-2.96,1.32-3.27,2.54-.19.74-.26,1.5-.26,2.26,0,1.8,0,3.61,0,5.41,0,.12,0,.25,0,.37.01.21-.09.28-.29.28-.65,0-1.31,0-1.96,0-.26,0-.35-.11-.33-.35,0-.09,0-.18,0-.27,0-4.05,0-8.1,0-12.15,0-.05,0-.11,0-.16,0-.46,0-.46.47-.47.53,0,1.06.01,1.59,0,.27,0,.38.08.37.36,0,.62,0,1.24.02,1.86,0,.07.02.14.04.26Z"/>
    </g>
    <g class="cls-2">
      <path class="cls-1" d="m1541.62,21.21c.02,2.46.01,4.91.06,7.37.02.8-.49.65-.94.65-3.96,0-7.93.12-11.89-.03-3.19-.12-5.62,2.22-5.1,6.22.09.67.55.47.91.47,3.19.01,6.39.03,9.58,0,.79-.01,1.09.15,1.06,1.01-.07,2.05-.05,4.11,0,6.16.02.74-.22.92-.93.91-3.19-.03-6.39.01-9.58-.03-.81-.01-1.06.19-1.05,1.03.04,5.03-.01,10.05.05,15.08.01,1-.29,1.23-1.23,1.19-1.98-.07-3.96-.04-5.94-.01-.67.01-.97-.11-.97-.89.03-8.8-.07-17.61.05-26.41.09-6.39,4.24-11.17,9.15-12.35.2-.05.46-.06.48-.36h16.3Z"/>
      <path class="cls-1" d="m1735.28,43.89c-1.46.02-2.93.04-4.39.06-2.46.03-3.55,1.12-3.55,3.59,0,4.22-.02,8.43.02,12.65,0,.82-.19,1.07-1.03,1.05-2.05-.06-4.11-.04-6.16,0-.69.01-.96-.15-.95-.91.03-5.02-.04-10.04.03-15.07.08-5.61,3.41-9.05,9-9.31,2.34-.11,4.69,0,7.03.02v7.93Z"/>
      <path class="cls-1" d="m1613.97,41.79c0-1.68,0-3.35,0-5.03,0-.38-.13-.87.53-.85,2.71.07,5.45-.27,8.14.19,4.58.78,7.28,3.79,7.45,8.59.18,5.28.05,10.57.08,15.85,0,.66-.34.68-.83.68-2.13-.01-4.26-.03-6.39.01-.74.02-.92-.23-.91-.94.03-4.18.02-8.37.02-12.55,0-2.75-1.03-3.78-3.8-3.78-1.1,0-2.21.05-3.3-.02-.76-.04-.91.25-.91.95.03,5.06,0,10.13.04,15.19,0,.91-.22,1.19-1.15,1.16-2.02-.07-4.04-.05-6.06,0-.71.01-.93-.18-.93-.92.04-4.26.02-8.51.02-12.77,0-2.47-1.09-3.56-3.55-3.59-1.17-.01-2.35.04-3.52-.02-.75-.04-.91.24-.91.94.03,5.1,0,10.2.04,15.3,0,.8-.14,1.08-1,1.06-2.09-.07-4.18-.04-6.28-.01-.6,0-.84-.15-.83-.8.02-7.93.02-15.85,0-23.78,0-.58.19-.76.76-.76,4.77.02,9.55-.07,14.32.06,4.08.11,7.14,1.97,9,5.84Z"/>
      <path class="cls-1" d="m1551.67,51.32c1.34-2.3,2.54-4.4,3.77-6.48.37-.62.37-.86-.47-.85-1.8.04-3.6-.02-5.39,0-2.35.03-4.3,1.85-4.48,4.17-.2,2.48,1.32,4.47,3.77,4.88.47.08.95.08,1.43.08,4.59,0,9.18.04,13.76-.03,1.06-.02,1.26.33,1.23,1.28-.08,2.01-.05,4.03-.06,6.05,0,.43.03.79-.6.78-5.47-.04-10.95.22-16.4-.16-6.84-.47-11.57-6.27-11.29-13.19.26-6.61,5.53-11.81,12.31-11.95,5.06-.11,10.13,0,15.19-.04.71,0,.85.25.84.89-.03,2.16-.02,4.33,0,6.49,0,.49-.11.92-.36,1.35-1.15,1.96-2.3,3.92-3.41,5.91-.32.58-.68.83-1.37.82-2.74-.04-5.48-.02-8.45-.02Z"/>
      <path class="cls-1" d="m1701.05,35.68c2.12.01,4.25-.11,6.33.51,5.72,1.72,9.5,7.48,8.95,13.7-.53,5.94-5.23,10.85-11.12,11.44-3.17.32-6.39.44-9.53-.25-6.12-1.35-10.42-7.56-9.7-13.86.76-6.67,6.04-11.53,12.55-11.54.84,0,1.69,0,2.53,0Zm-.14,17.63c.98,0,1.79.02,2.6,0,2.58-.09,4.69-2.23,4.7-4.75,0-2.71-1.96-4.66-4.75-4.69-1.61-.02-3.23-.03-4.84,0-2.48.05-4.19,1.75-4.49,4.39-.25,2.19,1.34,4.35,3.57,4.9,1.13.28,2.27.08,3.22.15Z"/>
      <path class="cls-1" d="m1662.05,48.6c0,3.85-.03,7.7.02,11.55.01.91-.29,1.1-1.13,1.08-1.94-.05-3.89-.06-5.83,0-.9.03-1.18-.19-1.17-1.13.05-5.03,0-10.05.04-15.08,0-.77-.12-1.07-1-1.04-2.13.08-4.26.03-6.38.02-2.6,0-4.64,1.86-4.74,4.36-.1,2.64,1.72,4.63,4.42,4.75,1.36.06,2.72.05,4.07,0,.63-.02.81.18.8.8-.04,2.16-.01,4.33-.01,6.49,0,.41.07.82-.57.8-2.45-.08-4.92.2-7.35-.37-5.86-1.35-9.98-7.14-9.49-13.36.48-6.19,5.39-11.27,11.46-11.5,5.35-.21,10.71-.06,16.07-.11.76,0,.8.35.8.94-.02,3.92,0,7.85,0,11.78Z"/>
      <path class="cls-1" d="m1666.75,41.03c0-4.07.02-8.15-.02-12.22,0-.75.17-1.02.97-1,2.05.06,4.11.05,6.17,0,.75-.02,1.02.18,1,.97-.05,2.05.02,4.11-.04,6.16-.02.79.25.98,1,.97,2.05-.05,4.11.01,6.17-.03.72-.02.94.21.92.93-.04,2.05-.05,4.11,0,6.16.02.75-.16,1.02-.96,1-2.02-.06-4.04.03-6.06-.04-.91-.03-1.1.28-1.08,1.12.06,1.8.02,3.6.02,5.39,0,1.9.78,2.69,2.65,2.69,1.54,0,3.08.03,4.63-.01.64-.02.8.2.8.81-.03,2.16-.03,4.33,0,6.5.01.65-.23.8-.83.8-2.53-.03-5.07.05-7.6-.03-4.24-.13-7.68-3.68-7.72-7.95-.04-4.07,0-8.15,0-12.22Z"/>
      <path class="cls-1" d="m1569.54,52.34c0-2.38-.01-4.77,0-7.15.03-5.45,3.36-8.97,8.81-9.24,2.16-.11,4.33-.02,6.49-.06.64-.01.82.21.81.82-.03,2.16-.03,4.33,0,6.49,0,.58-.18.77-.75.76-1.28-.03-2.57-.03-3.85,0-2.34.04-3.44,1.14-3.45,3.46,0,4.26-.02,8.51.02,12.76,0,.82-.2,1.07-1.04,1.05-1.98-.06-3.96-.06-5.94,0-.84.02-1.14-.17-1.12-1.07.07-2.6.02-5.21.02-7.81Z"/>
    </g>
    <g class="cls-2">
      <path class="cls-1" d="m960.66,72.25c2.01-6.94,3.97-13.67,5.91-20.41.21-.74.66-.86,1.34-.85,2.19.04,4.38-.02,6.56.03.87.02,1.27-.22,1.48-1.14.58-2.54,1.27-5.05,2-7.55.27-.94,0-1.17-.9-1.14-2.07.05-4.13,0-6.2.06-.93.03-1.14-.2-.86-1.12.47-1.56.77-3.18,1.2-4.76.48-1.74,1.69-2.59,3.47-2.65.55-.02,1.09-.03,1.64-.03,31.49,0,62.98,0,94.46,0,2.06,0,2.08,0,1.52,2.05-2.94,10.87-5.88,21.74-8.85,32.6-1.03,3.78-2.48,4.87-6.35,4.87-31.43.02-62.85.03-94.28.05-.66,0-1.31,0-2.15,0Zm16-5.62c5.54,0,10.88.02,16.21,0,5-.02,8.98-2.72,10.9-7.36,1.74-4.21,1.09-6.37-2.67-8.88,2.52-1.26,4.58-2.96,5.59-5.69,1.71-4.62-.75-8.23-5.67-8.25-4.92-.02-9.83.02-14.75-.03-.98,0-1.52.19-1.8,1.24-2.55,9.58-5.15,19.14-7.81,28.97Zm56.97-22.63c2.46,0,4.71.13,6.94-.04,1.77-.14,1.79.5,1.39,1.9-1.81,6.28-3.5,12.59-5.32,18.86-.44,1.5-.06,1.91,1.43,1.8,1.51-.11,3.04-.12,4.55,0,1.52.13,2.21-.35,2.61-1.91,1.65-6.39,3.49-12.72,5.18-19.1.32-1.21.83-1.64,2.1-1.55,1.87.13,3.77-.02,5.65.06,1.04.04,1.49-.3,1.73-1.33.4-1.77.92-3.52,1.52-5.23.38-1.07.03-1.24-.93-1.23-7.83.02-15.67.01-23.5.01-.54,0-1.06-.06-1.26.69-.64,2.31-1.35,4.61-2.08,7.06Zm-10.85-7.63c-2.44,0-4.68.08-6.91-.03-1.19-.06-1.66.34-1.97,1.47-2.42,9.07-4.87,18.12-7.4,27.16-.37,1.32-.23,1.67,1.18,1.64,4.5-.07,9,0,13.49-.04,2.16-.02,4.95.91,6.33-.37,1.42-1.32,1.42-4.12,2.17-6.22.38-1.07.06-1.24-.92-1.23-3.53.04-7.05-.01-10.58.03-1.09.01-1.56-.12-1.13-1.4.7-2.12,1.2-4.32,1.79-6.48,1.3-4.78,2.6-9.57,3.95-14.53Z"/>
      <path class="cls-1" d="m1023.38,30.07c-15.8,0-31.61,0-47.41,0-1.46,0-2.92-.03-4.26.71-1.16.65-2.03,1.52-2.4,2.83-.85,2.97-1.66,5.95-2.6,8.89-.32,1.01,0,1.13.87,1.11,2.19-.03,4.38.02,6.56-.03.94-.02,1.07.2.82,1.13-.99,3.75-.95,3.72-4.85,3.78-1.67.03-3.77-.73-4.91.34-1.04.97-1.12,2.98-1.57,4.55-1.62,5.64-3.37,11.26-4.76,16.96-.61,2.52-2.26,1.75-3.74,1.83-1.59.08-2.31-.94-2.51-2.33-.15-1.01-.1-2.04.19-3.07,3.34-12.01,6.64-24.04,10.01-36.05,1.18-4.19,2.7-5.24,7.1-5.24,33.49,0,66.98,0,100.47,0,1.16,0,2.34-.1,3.04,1.14,1.11,1.97.31,3.43-1.91,3.43-16.05,0-32.09,0-48.14,0Z"/>
      <path class="cls-1" d="m987.27,60.03c.14-.6.23-1.07.35-1.53q1.29-5,6.44-4.63c1.75.13,2.48,1.13,2.05,2.82-.47,1.83-1.9,3.15-3.89,3.31-1.61.13-3.24.03-4.95.03Z"/>
      <path class="cls-1" d="m994.42,42.58c.33,0,.51,0,.69,0,1.32.02,2.82-.23,3.14,1.63.27,1.56-1.05,3.52-2.72,3.79-1.42.23-2.89.12-4.34.16-.74.02-.77-.44-.64-.96.35-1.34.57-2.74,1.12-4.01.59-1.36,1.95-.26,2.75-.61Z"/>
    </g>
    <g class="cls-2">
      <path class="cls-1" d="m409.27,75.07c-16.52-13.38-19.49-22.62-9.92-37.27h2.03c-9.18,13.97-6.39,22.75,9.34,35.48.5.4.57,1.12.18,1.62-.4.49-1.13.57-1.62.17"/>
      <path class="cls-1" d="m413.14,72.9c-15.55-12.59-18.34-21.3-9.32-35.09h2.03c-8.63,13.11-6.01,21.36,8.74,33.31.49.4.57,1.12.17,1.62-.4.49-1.12.57-1.62.17"/>
      <path class="cls-1" d="m417.01,70.72c-14.59-11.81-17.19-19.97-8.7-32.92h2.03c-8.1,12.27-5.67,19.96,8.12,31.13.49.4.57,1.13.17,1.62-.4.49-1.13.57-1.62.17"/>
      <path class="cls-1" d="m420.89,68.55c-13.62-11.03-16.04-18.64-8.08-30.74h2.02c-7.55,11.42-5.31,18.57,7.51,28.95.49.4.57,1.12.17,1.62-.4.49-1.12.57-1.62.17"/>
      <path class="cls-1" d="m464.46,49.02l11.95,11.33h-8.7l-8.32-8.38v8.38h-7.09v-21.46h7.09v7.39l8.46-7.39h8.03l-11.43,10.12Zm32.89,11.33h-18.05v-21.46h7.1v16.82h10.95v4.64Zm9.52-13.14h8.56v4.17h-8.55v4.33h11.87v4.64h-18.9v-21.46h18.46v4.39h-11.43v3.93Zm22.59,0h8.55v4.17h-8.55v4.33h11.88v4.64h-18.91v-21.46h18.46v4.39h-11.43v3.93Zm39,.45l-5.07,12.68h-6.65l-5.07-12.68v12.68h-6.45v-21.46h9.58l5.41,13.65,5.41-13.65h9.44v21.46h-6.61v-12.68Zm18.94,4.24h5.87l-2.95-7.98-2.92,7.98Zm7.06,3.8h-8.26l-1.68,4.65h-7.1l8.7-21.46h8.55l8.74,21.46h-7.28l-1.68-4.65Zm26.44,4.64l-8.59-11.48v11.48h-6.65v-21.46h6.57l8.03,10.82v-10.82h6.65v21.46h-6.01Zm26.49,0l-8.59-11.48v11.48h-6.65v-21.46h6.58l8.05,10.82v-10.82h6.65v21.46h-6.03Z"/>
      <path class="cls-1" d="m425.06,23.54c16.52,13.38,19.49,22.62,9.92,37.27h-2.03c9.18-13.97,6.39-22.75-9.34-35.48-.5-.4-.58-1.12-.18-1.62,0,0,0,0,0,0,.4-.49,1.13-.57,1.62-.17"/>
      <path class="cls-1" d="m421.19,25.71c15.55,12.59,18.34,21.3,9.31,35.09h-2.02c8.63-13.11,6.01-21.36-8.74-33.31-.49-.4-.57-1.12-.17-1.62.4-.49,1.12-.57,1.62-.17h0"/>
      <path class="cls-1" d="m417.31,27.88c14.58,11.81,17.19,19.97,8.7,32.92h-2.03c8.1-12.27,5.67-19.96-8.12-31.13-.49-.4-.57-1.13-.17-1.62s1.13-.57,1.62-.17h0"/>
      <path class="cls-1" d="m413.43,30.06c13.62,11.03,16.04,18.64,8.08,30.74h-2.02c7.55-11.42,5.31-18.57-7.51-28.95-.49-.4-.57-1.12-.17-1.62.4-.49,1.12-.57,1.62-.17"/>
    </g>
  </g>
</svg>