<?xml version="1.0" encoding="UTF-8"?>
<svg id="_Слой_2" data-name="Слой 2" xmlns="http://www.w3.org/2000/svg" viewBox="0 0 521.18 102.76">
  <defs>
    <style>
      .cls-1, .cls-2, .cls-3 {
        fill: #fff;
        stroke-width: 0px;
      }

      .cls-2 {
        opacity: .2;
      }

      .cls-3 {
        opacity: 0;
      }
    </style>
  </defs>
  <g id="_Слой_1-2" data-name="Слой 1">
    <g>
      <g>
        <path class="cls-1" d="m47.95,17.64c0-17.3,0,.86-.02-16.44,0-.98.31-1.21,1.22-1.2,4.62.05,9.24.06,13.86.03.98,0,1.26.28,1.26,1.28-.02,33.1-.02,30.73-.01,63.82,0,1.64-.01,3.28.02,4.92.01.56-.19.82-.74.94-4.94,1.1-9.88,1.01-14.82-.05-.78-.17-.77-.62-.77-1.2,0-6.65,0-13.3,0-19.96,0-10.72,0-21.43,0-32.15Z"/>
        <path class="cls-1" d="m43.24,42.9c0,8.32,0,16.64,0,24.97,0,1.15-.02,1.16-1.05.68-6.02-2.87-10.79-7.1-14.15-12.9-.34-.58-.5-1.18-.5-1.86.01-11.99.02-23.98,0-35.97,0-.92.21-1.24,1.18-1.23,4.36.05,8.72.03,13.07.03,1.46,0,1.46,0,1.46,1.42,0,8.29,0,16.58,0,24.87h-.02Z"/>
        <path class="cls-1" d="m69.02,69.11v-4.86c0-12.35.01-24.71-.02-37.06,0-.91.24-1.13,1.14-1.12,4.03.06,8.06.04,12.09.04,2.37,0,2.37,0,2.38,2.37.02,8.49.04,16.97.07,25.46,0,.47-.02.92-.25,1.33-3.6,6.23-8.72,10.77-15.41,13.84Z"/>
        <path class="cls-1" d="m79.86,68.54c-9.72,7.85-20.81,10.38-32.91,7.3-11.45-2.92-19.82-10.03-25.19-20.47-.1-.19-.18-.39-.27-.58-3.86.4-7.66.87-11.38,1.41-.08.15-.19.29-.39.45-3.02,2.47-5.99,5-8.98,7.49-.56.47-1.02.89-.53,1.72,1.77,2.98,3.52,5.97,5.23,8.98.46.81.91.99,1.8.58,3.45-1.56,6.94-3.02,10.4-4.55.71-.31,1.16-.3,1.73.32,2.09,2.31,4.41,4.4,6.9,6.27.58.44.7.78.42,1.44-1.61,3.78-3.14,7.6-4.79,11.37-.43.98-.22,1.45.65,1.96,2.54,1.48,5.04,3.04,7.55,4.57,1.04.63,1.2.59,1.9-.39,2.5-3.44,5.01-6.87,7.49-10.33.4-.55.72-.73,1.42-.44,2.36.98,4.82,1.67,7.34,2.06.99.15,1.21.54,1.27,1.42.3,4.18.65,8.36.98,12.53.05.7.35,1.08,1.1,1.08,3.02,0,6.03,0,9.05,0,.67,0,1.03-.28,1.08-.98.12-1.8.25-3.59.4-5.39.2-2.51.43-5.02.62-7.54.06-.75.37-1,1.13-1.13,2.55-.43,5.06-1.06,7.44-2.05.84-.35,1.21-.11,1.67.53,2.46,3.43,4.96,6.83,7.42,10.27.51.71.95.91,1.77.4,2.49-1.57,5.02-3.06,7.54-4.59,1.24-.76,1.22-.79.65-2.16-1.58-3.76-3.14-7.53-4.71-11.29-.17-.41-.36-.73.19-1.14,2.62-1.93,5.05-4.08,7.18-6.54.44-.51.82-.58,1.43-.31,3.46,1.54,6.94,3.04,10.41,4.55,1.27.56,1.37.54,2.08-.69,1.66-2.86,3.27-5.74,4.97-8.57.46-.76.34-1.22-.3-1.73-1.7-1.38-3.39-2.79-5.07-4.2-1.41-1.18-2.8-2.4-4.23-3.56-.19-.15-.29-.3-.34-.45-3.6-.51-7.26-.97-10.99-1.36-2.56,5.23-6.29,9.81-11.12,13.71Z"/>
        <path class="cls-2" d="m36.34,16.62c-2.54,0-5.08,0-7.62-.03-.98-.01-1.19.31-1.18,1.23.03,11.99.02,23.98,0,35.97,0,.68.16,1.28.5,1.86,2.18,3.77,4.97,6.87,8.3,9.37V16.62Z"/>
        <path class="cls-2" d="m69.02,69.11c2.91-1.33,5.5-2.96,7.82-4.87V26.11c-2.23,0-4.47-.01-6.7-.04-.9-.01-1.14.21-1.14,1.12.03,12.35.02,24.71.02,37.06v4.86Z"/>
        <path class="cls-2" d="m56.65.05c-2.5,0-5-.02-7.5-.04-.91,0-1.23.22-1.22,1.2.03,17.3.02-.86.02,16.44,0,10.72,0,21.43,0,32.15,0,6.65,0,13.3,0,19.96,0,.58,0,1.03.77,1.2,2.64.57,5.28.85,7.93.83V.05Z"/>
        <path class="cls-3" d="m91,54.83c-2.56,5.23-6.29,9.81-11.12,13.71-9.72,7.85-20.81,10.38-32.91,7.3-11.45-2.92-19.82-10.03-25.19-20.47-.1-.19-.18-.39-.27-.58-1.89.2-3.77.41-5.63.64,6.94,15.63,22.59,26.54,40.79,26.54s33.76-10.85,40.73-26.41c-2.12-.27-4.25-.52-6.41-.75Z"/>
      </g>
      <g>
        <path class="cls-1" d="m187.02,18.53v62.5h-8.04V26.56h-20.54v54.46h-8.03V18.53h36.6Z"/>
        <path class="cls-1" d="m223.98,31.92l6.25,49.1h-7.68l-1.7-13.04h-14.82l-1.7,13.04h-7.68l6.25-49.1h21.07Zm-3.84,28.39l-2.59-20.71h-8.21l-2.59,20.71h13.39Z"/>
        <path class="cls-1" d="m271.12,31.92v32.85h-23.57v16.25h-7.68V31.92h31.25Zm-23.57,25.18h15.89v-17.5h-15.89v17.5Z"/>
        <path class="cls-1" d="m307.54,31.92v7.68h-11.79v41.43h-7.68v-41.43h-11.79v-7.68h31.25Z"/>
        <path class="cls-1" d="m350.31,18.53v62.5h-8.04V26.56h-13.57l-7.32,54.46h-11.16v-8.04h4.29l7.23-54.46h28.57Z"/>
        <path class="cls-1" d="m397.36,31.92v49.1h-7.68v-34.82l-19.2,34.82h-7.68V31.92h7.68v34.82l19.2-34.82h7.68Z"/>
        <path class="cls-1" d="m438.96,31.92v41.43h4.55v15.71h-7.68v-8.04h-23.48v8.04h-7.68v-15.71h3.66l5.71-41.43h24.91Zm-7.68,41.43v-33.75h-11.34l-4.64,33.75h15.98Z"/>
        <path class="cls-1" d="m481.45,31.92v7.68h-21.34v12.86h10.62v7.68h-10.62v13.21h21.34v7.68h-29.02V31.92h29.02Z"/>
        <path class="cls-1" d="m521.18,31.92v32.85h-23.57v16.25h-7.68V31.92h31.25Zm-23.57,25.18h15.89v-17.5h-15.89v17.5Z"/>
      </g>
    </g>
  </g>
</svg>