<?xml version="1.0" encoding="UTF-8"?>
<svg id="_Слой_2" data-name="Слой 2" xmlns="http://www.w3.org/2000/svg" viewBox="0 0 120.83 61.17">
  <defs>
    <style>
      .cls-1 {
        fill: #fff;
        stroke-width: 0px;
      }

      .cls-2 {
        opacity: .6;
      }
    </style>
  </defs>
  <g id="_Слой_1-2" data-name="Слой 1">
    <g class="cls-2">
      <g>
        <path class="cls-1" d="m92.73.01c9.15,0,18.31,0,27.46-.01.48,0,.64.04.64.6-.02,19.99-.02,39.98,0,59.97,0,.55-.16.6-.64.6-9.15-.02-18.31-.01-27.46-.01V.01Zm5.3,30.72c0,3.57,0,7.15,0,10.72,0,.48.05.71.63.71,5.46-.02,10.92-.02,16.38,0,.53,0,.63-.19.62-.65-.03-1.23-.05-2.47,0-3.7.03-.65-.13-.85-.82-.84-3.32.04-6.64,0-9.96.03-.57,0-.74-.15-.71-.72.05-.8.05-1.61,0-2.41-.04-.63.16-.79.79-.79,2.87.03,5.74,0,8.61.03.52,0,.69-.13.68-.67-.04-1.16-.04-2.32,0-3.47.02-.59-.14-.76-.74-.75-2.87.03-5.74,0-8.61.03-.54,0-.77-.1-.73-.69.06-.78.05-1.56,0-2.34-.04-.66.12-.9.85-.89,3.32.04,6.64,0,9.96.03.53,0,.69-.15.67-.68-.04-1.23-.04-2.47,0-3.7.02-.55-.18-.66-.69-.66-5.41.02-10.82.02-16.23,0-.64,0-.72.23-.72.77.02,3.55.01,7.1.01,10.64Z"/>
        <path class="cls-1" d="m28.1,61.16H.01C.01,41,.02,20.85,0,.69,0,.13.13,0,.69,0c9.14.02,18.27.01,27.41.01v61.14Zm-2.32-19.01c-.24-.33-.38-.53-.53-.73-2.7-3.6-5.39-7.21-8.1-10.79-.31-.41-.33-.65,0-1.07,2.55-3.18,5.06-6.38,7.58-9.59.13-.16.35-.29.33-.62-2.29,0-4.57,0-6.85,0-.36,0-.46.25-.63.46-2.29,2.96-4.58,5.93-6.87,8.89-.11.14-.15.39-.45.34,0-3.02,0-6.04,0-9.06,0-.47-.09-.65-.61-.64-1.68.03-3.37.03-5.06,0-.43,0-.55.12-.55.55.01,7.24.01,14.49,0,21.73,0,.43.13.55.55.55,1.66-.02,3.32-.04,4.98,0,.6.02.69-.2.69-.73-.02-2.97-.01-5.94-.01-8.9,0-.31,0-.63,0-1.13.27.35.43.53.57.73,2.34,3.18,4.68,6.35,7.03,9.53.17.23.29.5.68.5,2.36-.02,4.72,0,7.24,0Z"/>
        <path class="cls-1" d="m61.77.01c9.36,0,18.72,0,28.09,0,.01.28.03.55.03.83,0,19.83,0,39.66,0,59.49,0,.28-.02.55-.03.83h-28.09c0-.25.02-.5.02-.75,0-19.88,0-39.76,0-59.64,0-.25-.02-.5-.02-.75Zm18.68,30.44c-.32-.3-.51-.46-.68-.63-2.91-2.85-5.93-5.61-8.69-8.59-1.45-1.56-2.98-2.18-5.01-1.91-.4.05-.55.11-.55.55.01,7.25.01,14.49,0,21.74,0,.43.12.56.55.55,1.48-.02,2.97-.04,4.45,0,.58.02.76-.12.76-.74-.03-3.32-.02-6.64-.01-9.96,0-.24-.07-.49.1-.76.17.16.32.3.46.43,3.18,3.12,6.42,6.18,9.51,9.38,1.2,1.24,2.4,1.95,4.12,1.64.05,0,.1,0,.15,0,.52.09.62-.17.61-.64-.01-7.19-.01-14.39,0-21.58,0-.46-.11-.61-.59-.6-1.41.03-2.82.06-4.23,0-.8-.04-.98.21-.97.98.04,3.32.02,6.63.02,10.16Z"/>
        <path class="cls-1" d="m59.05,61.16h-28.09c-.01-.28-.03-.55-.03-.83,0-19.83,0-39.66,0-59.49,0-.28.02-.55.03-.83,9.36,0,18.72,0,28.09,0,0,.25-.03.5-.03.75,0,19.88,0,39.76,0,59.64,0,.25.02.5.03.75Zm-2.04-30.55c.02-6.83-5.08-11.89-12.01-11.91-6.93-.02-12.07,5-12.08,11.83-.02,6.89,5.08,11.95,12.04,11.96,6.9.01,12.04-5.04,12.06-11.88Z"/>
      </g>
      <path class="cls-1" d="m50.81,30.58c0,2.83-1.4,5.17-3.64,6.09-3.4,1.41-7.11-.64-7.88-4.37-.27-1.3-.25-2.6.12-3.88.78-2.72,3.05-4.46,5.7-4.38,2.68.09,4.84,1.94,5.49,4.66.15.62.18,1.24.21,1.87Z"/>
    </g>
  </g>
</svg>