<?xml version="1.0" encoding="UTF-8"?>
<svg id="_Слой_2" data-name="Слой 2" xmlns="http://www.w3.org/2000/svg" viewBox="0 0 187.58 44.51">
  <defs>
    <style>
      .cls-1 {
        fill: #fff;
        stroke-width: 0px;
      }

      .cls-2 {
        opacity: .6;
      }
    </style>
  </defs>
  <g id="_Слой_1-2" data-name="Слой 1">
    <g class="cls-2">
      <g>
        <g>
          <path class="cls-1" d="m67.94,17.45v-.75c0-1.85-.86-3.4-2.69-3.4-2.03,0-2.94,1.37-2.94,2.78,0,6.22,15.43,3.18,15.43,14.7,0,6.71-4.52,9.71-12.84,9.71-7.82,0-12.18-2.34-12.18-8.87v-1.1h9.13v.75c0,2.69,1.27,3.66,3.1,3.66,1.93,0,3.05-1.32,3.05-3.04,0-6.22-14.82-3.13-14.82-14.3,0-6.36,3.91-9.84,11.87-9.84s11.72,2.96,11.72,9.71h-8.83Z"/>
          <polygon class="cls-1" points="80.73 39.88 80.73 8.36 90.17 8.36 90.17 39.88 80.73 39.88 80.73 39.88"/>
          <path class="cls-1" d="m106.45,22.75h12.17v17.13h-6.39l-.21-2.78h-.1c-1.27,2.69-4.62,3.4-7.82,3.4-9.59,0-10.45-5.96-10.45-16.37s2.33-16.37,13.49-16.37c6.7,0,11.47,2.96,11.47,10.59h-9.13c0-1.59-.15-2.83-.51-3.66-.35-.89-1.06-1.37-2.18-1.37-3.09,0-3.4,2.29-3.4,10.81s.31,10.81,3.2,10.81c1.98,0,3.14-1.1,3.2-6.62h-3.35v-5.56h0Z"/>
          <polygon class="cls-1" points="122.13 8.36 135.63 8.36 139.43 27.03 139.53 27.03 143.34 8.36 156.83 8.36 156.83 39.88 148 39.88 148 16.4 147.9 16.4 142.88 39.88 136.08 39.88 131.06 16.4 130.96 16.4 130.96 39.88 122.13 39.88 122.13 8.36 122.13 8.36"/>
          <path class="cls-1" d="m175.45,28.18h-5.28l2.59-13.37h.1l2.59,13.37h0Zm-17.4,11.7h10.04l.96-5.52h7.51l.96,5.52h10.05l-8.83-31.51h-11.87l-8.83,31.51h0Z"/>
        </g>
        <g>
          <path class="cls-1" d="m11.1,36.38c.34-3.12,1.85-6.8,4.39-10.56,2.97-4.4,7-8.43,11.34-11.34,5.88-3.94,11.47-5.16,14.59-3.18.12.07.23.15.34.24-2.43-4.42-6.36-8.05-11.43-10.03C26.51.03,22.54-.32,18.77.28c-5.3,6.81-9.18,18.55-9.44,25.3-.17,4.2.45,7.87,1.77,10.8h0Z"/>
          <path class="cls-1" d="m6.16,24.49c.25-7.23,2.66-14.79,6.53-22.32C7.75,4.52,3.66,8.68,1.52,14.18c-3.96,10.16.07,21.46,9.03,26.99-2.92-3.99-4.62-10.03-4.38-16.69h0Z"/>
          <path class="cls-1" d="m43.92,17.19c-.04,1.12-.25,2.33-.62,3.59-.71,2.44-2.01,5.11-3.83,7.81-2.97,4.41-7,8.44-11.34,11.34-2.34,1.56-4.29,2.57-6.39,3.24-.1,0-1.07.36-1.16.37-1.17.32-1.95.46-2.83.49,10.45,2.18,21.25-3.43,25.25-13.72,1.69-4.35,1.92-8.91.93-13.13h0Z"/>
          <path class="cls-1" d="m40.88,18.63c-.09-1.73-.78-3.06-1.99-3.83-2.67-1.69-7.53-.61-12.67,2.83-7.79,5.21-13.88,14.13-13.59,19.89.04.83.22,1.55.52,2.18.51.6.67.95,1.27,1.43l.61.38c2.92,1.48,7.2.4,12.25-2.98,7.79-5.21,13.88-14.13,13.59-19.89h0Z"/>
          <path class="cls-1" d="m15.04,41.5l-.61-.38c-.6-.48-.76-.83-1.27-1.43-.3-.63-.48-1.35-.52-2.18-.29-5.76,5.8-14.68,13.59-19.89,5.14-3.44,9.99-4.52,12.67-2.83,1.21.77,1.9,2.09,1.99,3.83.29,5.76-5.8,14.69-13.59,19.89-5.05,3.38-9.33,4.46-12.25,2.98h0Z"/>
        </g>
      </g>
    </g>
  </g>
</svg>