<?xml version="1.0" encoding="UTF-8"?>
<svg id="_Слой_2" data-name="Слой 2" xmlns="http://www.w3.org/2000/svg" viewBox="0 0 219.65 40.37">
  <defs>
    <style>
      .cls-1 {
        fill: #fff;
        stroke-width: 0px;
      }

      .cls-2 {
        opacity: .6;
      }
    </style>
  </defs>
  <g id="_Слой_1-2" data-name="Слой 1">
    <g class="cls-2">
      <path class="cls-1" d="m25.99,0c.02,2.46.01,4.91.06,7.37.02.8-.49.65-.94.65-3.96,0-7.93.12-11.89-.03-3.19-.12-5.62,2.22-5.1,6.22.09.67.55.47.91.47,3.19.01,6.39.03,9.58,0,.79-.01,1.09.15,1.06,1.01-.07,2.05-.05,4.11,0,6.16.02.74-.22.92-.93.91-3.19-.03-6.39.01-9.58-.03-.81-.01-1.06.19-1.05,1.03.04,5.03-.01,10.05.05,15.08.01,1-.29,1.23-1.23,1.19-1.98-.07-3.96-.04-5.94-.01-.67.01-.97-.11-.97-.89.03-8.8-.07-17.61.05-26.41C.15,6.32,4.3,1.54,9.21.36c.2-.05.46-.06.48-.36h16.3Z"/>
      <path class="cls-1" d="m219.65,22.68c-1.46.02-2.93.04-4.39.06-2.46.03-3.55,1.12-3.55,3.59,0,4.22-.02,8.43.02,12.65,0,.82-.19,1.07-1.03,1.05-2.05-.06-4.11-.04-6.16,0-.69.01-.96-.15-.95-.91.03-5.02-.04-10.04.03-15.07.08-5.61,3.41-9.05,9-9.31,2.34-.11,4.69,0,7.03.02v7.93Z"/>
      <path class="cls-1" d="m98.34,20.58c0-1.68,0-3.35,0-5.03,0-.38-.13-.87.53-.85,2.71.07,5.45-.27,8.14.19,4.58.78,7.28,3.79,7.45,8.59.18,5.28.05,10.57.08,15.85,0,.66-.34.68-.83.68-2.13-.01-4.26-.03-6.39.01-.74.02-.92-.23-.91-.94.03-4.18.02-8.37.02-12.55,0-2.75-1.03-3.78-3.8-3.78-1.1,0-2.21.05-3.3-.02-.76-.04-.91.25-.91.95.03,5.06,0,10.13.04,15.19,0,.91-.22,1.19-1.15,1.16-2.02-.07-4.04-.05-6.06,0-.71.01-.93-.18-.93-.92.04-4.26.02-8.51.02-12.77,0-2.47-1.09-3.56-3.55-3.59-1.17-.01-2.35.04-3.52-.02-.75-.04-.91.24-.91.94.03,5.1,0,10.2.04,15.3,0,.8-.14,1.08-1,1.06-2.09-.07-4.18-.04-6.28-.01-.6,0-.84-.15-.83-.8.02-7.93.02-15.85,0-23.78,0-.58.19-.76.76-.76,4.77.02,9.55-.07,14.32.06,4.08.11,7.14,1.97,9,5.84Z"/>
      <path class="cls-1" d="m36.04,30.12c1.34-2.3,2.54-4.4,3.77-6.48.37-.62.37-.86-.47-.85-1.8.04-3.6-.02-5.39,0-2.35.03-4.3,1.85-4.48,4.17-.2,2.48,1.32,4.47,3.77,4.88.47.08.95.08,1.43.08,4.59,0,9.18.04,13.76-.03,1.06-.02,1.26.33,1.23,1.28-.08,2.01-.05,4.03-.06,6.05,0,.43.03.79-.6.78-5.47-.04-10.95.22-16.4-.16-6.84-.47-11.57-6.27-11.29-13.19.26-6.61,5.53-11.81,12.31-11.95,5.06-.11,10.13,0,15.19-.04.71,0,.85.25.84.89-.03,2.16-.02,4.33,0,6.49,0,.49-.11.92-.36,1.35-1.15,1.96-2.3,3.92-3.41,5.91-.32.58-.68.83-1.37.82-2.74-.04-5.48-.02-8.45-.02Z"/>
      <path class="cls-1" d="m185.42,14.47c2.12.01,4.25-.11,6.33.51,5.72,1.72,9.5,7.48,8.95,13.7-.53,5.94-5.23,10.85-11.12,11.44-3.17.32-6.39.44-9.53-.25-6.12-1.35-10.42-7.56-9.7-13.86.76-6.67,6.04-11.53,12.55-11.54.84,0,1.69,0,2.53,0Zm-.14,17.63c.98,0,1.79.02,2.6,0,2.58-.09,4.69-2.23,4.7-4.75,0-2.71-1.96-4.66-4.75-4.69-1.61-.02-3.23-.03-4.84,0-2.48.05-4.19,1.75-4.49,4.39-.25,2.19,1.34,4.35,3.57,4.9,1.13.28,2.27.08,3.22.15Z"/>
      <path class="cls-1" d="m146.42,27.39c0,3.85-.03,7.7.02,11.55.01.91-.29,1.1-1.13,1.08-1.94-.05-3.89-.06-5.83,0-.9.03-1.18-.19-1.17-1.13.05-5.03,0-10.05.04-15.08,0-.77-.12-1.07-1-1.04-2.13.08-4.26.03-6.38.02-2.6,0-4.64,1.86-4.74,4.36-.1,2.64,1.72,4.63,4.42,4.75,1.36.06,2.72.05,4.07,0,.63-.02.81.18.8.8-.04,2.16-.01,4.33-.01,6.49,0,.41.07.82-.57.8-2.45-.08-4.92.2-7.35-.37-5.86-1.35-9.98-7.14-9.49-13.36.48-6.19,5.39-11.27,11.46-11.5,5.35-.21,10.71-.06,16.07-.11.76,0,.8.35.8.94-.02,3.92,0,7.85,0,11.78Z"/>
      <path class="cls-1" d="m151.12,19.82c0-4.07.02-8.15-.02-12.22,0-.75.17-1.02.97-1,2.05.06,4.11.05,6.17,0,.75-.02,1.02.18,1,.97-.05,2.05.02,4.11-.04,6.16-.02.79.25.98,1,.97,2.05-.05,4.11.01,6.17-.03.72-.02.94.21.92.93-.04,2.05-.05,4.11,0,6.16.02.75-.16,1.02-.96,1-2.02-.06-4.04.03-6.06-.04-.91-.03-1.1.28-1.08,1.12.06,1.8.02,3.6.02,5.39,0,1.9.78,2.69,2.65,2.69,1.54,0,3.08.03,4.63-.01.64-.02.8.2.8.81-.03,2.16-.03,4.33,0,6.5.01.65-.23.8-.83.8-2.53-.03-5.07.05-7.6-.03-4.24-.13-7.68-3.68-7.72-7.95-.04-4.07,0-8.15,0-12.22Z"/>
      <path class="cls-1" d="m53.91,31.13c0-2.38-.01-4.77,0-7.15.03-5.45,3.36-8.97,8.81-9.24,2.16-.11,4.33-.02,6.49-.06.64-.01.82.21.81.82-.03,2.16-.03,4.33,0,6.49,0,.58-.18.77-.75.76-1.28-.03-2.57-.03-3.85,0-2.34.04-3.44,1.14-3.45,3.46,0,4.26-.02,8.51.02,12.76,0,.82-.2,1.07-1.04,1.05-1.98-.06-3.96-.06-5.94,0-.84.02-1.14-.17-1.12-1.07.07-2.6.02-5.21.02-7.81Z"/>
    </g>
  </g>
</svg>