<?xml version="1.0" encoding="UTF-8"?>
<svg id="_Слой_2" data-name="Слой 2" xmlns="http://www.w3.org/2000/svg" viewBox="0 0 259.5 52.05">
  <defs>
    <style>
      .cls-1 {
        fill: #fff;
        stroke-width: 0px;
      }

      .cls-2 {
        opacity: .6;
      }
    </style>
  </defs>
  <g id="_Слой_1-2" data-name="Слой 1">
    <g class="cls-2">
      <path class="cls-1" d="m15.34,51.79C-1.18,38.41-4.15,29.18,5.42,14.53h2.03C-1.73,28.5,1.06,37.27,16.79,50.01c.5.4.57,1.12.18,1.62-.4.49-1.13.57-1.62.17"/>
      <path class="cls-1" d="m19.22,49.62C3.67,37.03.87,28.32,9.9,14.52h2.03c-8.63,13.11-6.01,21.36,8.74,33.31.49.4.57,1.12.17,1.62-.4.49-1.12.57-1.62.17"/>
      <path class="cls-1" d="m23.09,47.45C8.51,35.63,5.9,27.47,14.4,14.53h2.03c-8.1,12.27-5.67,19.96,8.12,31.13.49.4.57,1.13.17,1.62-.4.49-1.13.57-1.62.17"/>
      <path class="cls-1" d="m26.97,45.27c-13.62-11.03-16.04-18.64-8.08-30.74h2.02c-7.55,11.42-5.31,18.57,7.51,28.95.49.4.57,1.12.17,1.62-.4.49-1.12.57-1.62.17"/>
      <path class="cls-1" d="m70.54,25.74l11.95,11.33h-8.7l-8.32-8.38v8.38h-7.09V15.62h7.09v7.39l8.46-7.39h8.03l-11.43,10.12Zm32.89,11.33h-18.05V15.62h7.1v16.82h10.95v4.64Zm9.52-13.14h8.56v4.17h-8.55v4.33h11.87v4.64h-18.9V15.62h18.46v4.39h-11.43v3.93Zm22.59,0h8.55v4.17h-8.55v4.33h11.88v4.64h-18.91V15.62h18.46v4.39h-11.43v3.93Zm39,.45l-5.07,12.68h-6.65l-5.07-12.68v12.68h-6.45V15.62h9.58l5.41,13.65,5.41-13.65h9.44v21.46h-6.61v-12.68Zm18.94,4.24h5.87l-2.95-7.98-2.92,7.98Zm7.06,3.8h-8.26l-1.68,4.65h-7.1l8.7-21.46h8.55l8.74,21.46h-7.28l-1.68-4.65Zm26.44,4.64l-8.59-11.48v11.48h-6.65V15.62h6.57l8.03,10.82v-10.82h6.65v21.46h-6.01Zm26.49,0l-8.59-11.48v11.48h-6.65V15.62h6.58l8.05,10.82v-10.82h6.65v21.46h-6.03Z"/>
      <path class="cls-1" d="m31.14.26c16.52,13.38,19.49,22.62,9.92,37.27h-2.03c9.18-13.97,6.39-22.75-9.34-35.48-.5-.4-.58-1.12-.18-1.62,0,0,0,0,0,0,.4-.49,1.13-.57,1.62-.17"/>
      <path class="cls-1" d="m27.27,2.43c15.55,12.59,18.34,21.3,9.31,35.09h-2.02c8.63-13.11,6.01-21.36-8.74-33.31-.49-.4-.57-1.12-.17-1.62.4-.49,1.12-.57,1.62-.17h0"/>
      <path class="cls-1" d="m23.39,4.6c14.58,11.81,17.19,19.97,8.7,32.92h-2.03c8.1-12.27,5.67-19.96-8.12-31.13-.49-.4-.57-1.13-.17-1.62s1.13-.57,1.62-.17h0"/>
      <path class="cls-1" d="m19.51,6.78c13.62,11.03,16.04,18.64,8.08,30.74h-2.02c7.55-11.42,5.31-18.57-7.51-28.95-.49-.4-.57-1.12-.17-1.62.4-.49,1.12-.57,1.62-.17"/>
    </g>
  </g>
</svg>