<?xml version="1.0" encoding="UTF-8"?>
<svg id="_Слой_2" data-name="Слой 2" xmlns="http://www.w3.org/2000/svg" viewBox="0 0 123 39.95">
  <defs>
    <style>
      .cls-1 {
        fill: #fff;
        stroke-width: 0px;
      }

      .cls-2 {
        opacity: .6;
      }
    </style>
  </defs>
  <g id="_Слой_1-2" data-name="Слой 1">
    <g class="cls-2">
      <path class="cls-1" d="m18.88,39.95c-2.36-.01-5.08-.43-7.68-1.49-3.43-1.41-6.07-3.76-8.03-6.88-1.7-2.7-2.66-5.66-3.01-8.81-.48-4.29.12-8.43,1.93-12.36C4.08,6.09,7.38,3.16,11.73,1.36c1.46-.6,2.98-1.01,4.55-1.2,1.41-.17,2.84-.2,4.26-.12,1.56.08,3.11.29,4.62.71,1.37.38,2.68.9,3.94,1.59.88.48,1.74.99,2.53,1.62.74.59,1.43,1.22,2.07,1.93.64.72,1.22,1.49,1.76,2.3.54.82.99,1.68,1.39,2.57.57,1.26,1.01,2.56,1.31,3.91.19.86.34,1.72.41,2.6.06.77.12,1.53.14,2.3.08,2.5-.23,4.94-.95,7.32-.5,1.67-1.21,3.25-2.15,4.72-2.6,4.04-6.23,6.64-10.9,7.79-1.35.33-3.53.56-5.82.56Zm-7.29-19.75c-.02,1.05.06,2.1.24,3.14.37,2.17,1.21,4.08,2.85,5.6,1.1,1.02,2.4,1.58,3.87,1.75,1.25.15,2.46-.02,3.63-.52.65-.28,1.27-.63,1.78-1.11.47-.43.88-.92,1.25-1.44.78-1.11,1.28-2.33,1.58-3.65.16-.71.23-1.44.29-2.16.06-.67.11-1.34.12-2.01,0-.45-.04-.91-.07-1.36-.03-.6-.1-1.2-.22-1.79-.19-1-.48-1.97-.92-2.89-.52-1.09-1.14-2.09-2.1-2.86-.59-.47-1.22-.85-1.93-1.11-.7-.25-1.42-.42-2.17-.48-.63-.05-1.25-.01-1.85.1-1.61.29-2.92,1.12-3.96,2.38-1.1,1.32-1.75,2.85-2.09,4.53-.26,1.28-.29,2.58-.3,3.88Z"/>
      <path class="cls-1" d="m94.44,26.43c1.77.01,3.59.01,5.41.06.18,0,.25.07.28.23.12.67.27,1.34.48,1.99.4,1.2,1.14,2.05,2.35,2.5,1.8.66,3.62.88,5.48.35,1.6-.46,2.73-1.43,3.19-3.08.06-.2.05-.36-.05-.55-.15-.28-.27-.58-.41-.87-.21-.46-.55-.79-1.01-1.02-1.8-.89-3.7-1.5-5.63-2.04-1.96-.55-3.93-1.03-5.85-1.69-1.79-.62-3.5-1.4-5.06-2.49-1.41-.99-2.36-2.32-2.94-3.93-.77-2.16-.76-4.35-.17-6.54.56-2.08,1.56-3.9,3.15-5.37,1.36-1.26,2.94-2.15,4.67-2.78C100.85.28,103.46,0,106.11.01c2.57.01,5.07.38,7.49,1.27,1.72.63,3.28,1.53,4.58,2.82,1.52,1.5,2.37,3.35,2.87,5.4.2.84.33,1.68.41,2.54.02.2-.05.23-.22.23-1.13,0-2.25,0-3.38,0-2.28,0-4.56.01-6.85.02-.2,0-.27-.04-.3-.26-.19-1.33-.88-2.35-2.04-3-2.15-1.19-4.33-1.18-6.5,0-1.44.78-1.27,2.29-.63,3.15.36.48.82.83,1.37,1.06,1.98.83,4.04,1.36,6.12,1.88,2.01.5,4.03.96,5.98,1.69,1.52.56,2.95,1.29,4.28,2.24,1.8,1.28,2.89,3.02,3.39,5.15.37,1.58.36,3.16.17,4.76-.17,1.46-.57,2.83-1.3,4.1-.96,1.67-2.28,2.99-3.92,4-2.57,1.58-5.38,2.4-8.36,2.7-2.35.24-4.7.25-7.05,0-3.11-.34-6.02-1.29-8.6-3.12-2.46-1.74-3.94-4.12-4.63-7.01-.22-.93-.34-1.88-.36-2.84,0-.21.04-.29.27-.3,1.82-.04,3.65-.05,5.53-.06Z"/>
      <path class="cls-1" d="m55.31.92c4.24,0,8.49,0,12.73,0,1.2,0,2.39.01,3.59,0,.23,0,.3.05.3.29-.01,2.99-.01,5.98,0,8.97,0,.24-.07.29-.3.29-2.65-.01-5.3-.02-7.96-.01-.73,0-1.46.02-2.19.04-.43,0-.35.01-.36.35-.11,6.85-.02,13.71-.04,20.56,0,2.47-.03,4.95-.08,7.42,0,.25-.08.3-.32.3-3.2-.01-6.4-.01-9.6-.02-.43,0-.85-.04-1.28-.03-.22,0-.26-.07-.26-.28-.01-2.96-.04-5.91-.04-8.87,0-6.36,0-12.73-.01-19.09,0-.41.04-.36-.36-.37-3.35-.05-6.7-.03-10.05-.02-.37,0-.36,0-.36-.36.04-2.94.06-5.88-.01-8.82,0-.34,0-.34.33-.34,5.42,0,10.85,0,16.27,0,0,0,0-.02,0-.02Z"/>
      <path class="cls-1" d="m86.36,20.01c.03,6.2,0,12.41-.03,18.61,0,.09,0,.18,0,.26.02.19-.06.25-.25.25-3.62-.01-7.23.07-10.85-.05-.06,0-.11,0-.17,0-.31-.01-.31-.01-.31-.33,0-3.91.01-7.83.01-11.74,0-8.58,0-17.16.01-25.74,0-.35-.08-.35.35-.35,3.65,0,7.3,0,10.94-.02.26,0,.23.14.23.3.02,5.24.04,10.48.06,15.72,0,1.04,0,2.07,0,3.11Z"/>
    </g>
  </g>
</svg>