<?xml version="1.0" encoding="UTF-8"?>
<svg id="_Слой_2" data-name="Слой 2" xmlns="http://www.w3.org/2000/svg" viewBox="0 0 113.46 99.66">
  <defs>
    <style>
      .cls-1 {
        fill: #fff;
        stroke-width: 0px;
      }

      .cls-2 {
        opacity: .6;
      }
    </style>
  </defs>
  <g id="_Слой_1-2" data-name="Слой 1">
    <g class="cls-2">
      <g>
        <path class="cls-1" d="m.33,98.66v-4.48c1.3.69,2.85,1.2,4.33,1.32.51.05.99.05,1.45.03,1.5-.1,2.34-.51,2.34-1.27,0-.97-1.15-1.45-3.39-2.29-3.08-1.17-5.07-2.44-5.07-5.81s2.78-5.55,6.95-5.55c1.83,0,3.67.36,4.89.87v4.3c-1.1-.69-2.83-1.15-4.51-1.15s-2.75.59-2.75,1.5c0,.87,1.07,1.45,3.21,2.32,3.08,1.22,5.2,2.52,5.2,5.78s-2.55,5.42-7.1,5.42c-2.09,0-4.18-.41-5.55-.99Z"/>
        <path class="cls-1" d="m21.75,95.74c1.43,0,2.8-.76,3.13-1.02v4.05c-.36.18-1.76.89-3.85.89-4.15,0-6.85-2.85-6.85-6.72s2.7-6.72,6.85-6.72c2.09,0,3.41.69,3.77.87v4.07c-.61-.48-1.91-1.02-3.06-1.02-1.73,0-2.98,1.07-2.98,2.8s1.17,2.8,2.98,2.8Z"/>
        <path class="cls-1" d="m31.57,80.97v5.93c0,.59-.03,1.2-.05,1.45.74-1.02,2.19-2.14,3.95-2.14,2.73,0,4.46,1.68,4.46,5.14v7.95h-4.53v-7.26c0-.99-.41-1.76-1.38-1.76-1.43,0-2.34,1.1-2.34,2.62v6.39h-4.56v-18.34h4.46Z"/>
        <path class="cls-1" d="m45.04,80.58c1.48,0,2.42.89,2.42,2.34s-.94,2.37-2.42,2.37-2.45-.92-2.45-2.37.94-2.34,2.45-2.34Zm2.27,5.98v12.73h-4.56v-12.73h4.56Z"/>
        <path class="cls-1" d="m54.44,86.57l.13,1.3c.05.38-.03.66-.1.81h.05c.56-1.17,2.27-2.47,4.15-2.47,2.73,0,4.46,1.68,4.46,5.14v7.95h-4.53v-7.26c0-.99-.41-1.76-1.38-1.76-1.43,0-2.34,1.1-2.34,2.62v6.39h-4.56v-12.73h4.12Z"/>
        <path class="cls-1" d="m79.14,99.3h-4.1l-.1-.99c-.03-.48.05-.82.05-.82h-.05c-.56,1.22-2.19,2.17-3.97,2.17-3.23,0-5.93-2.44-5.93-6.72s2.7-6.72,5.83-6.72c1.76,0,3.11.71,3.77,1.6h.05s-.08-.33-.08-1.07v-5.78h4.53v18.34Zm-9.86-6.37c0,1.78,1.12,2.96,2.57,2.96,1.35,0,2.57-1.04,2.57-2.96s-1.22-2.95-2.57-2.95c-1.45,0-2.57,1.15-2.57,2.95Z"/>
        <path class="cls-1" d="m82.09,80.97h4.53v13.47c0,1.09.54,1.4,1.17,1.4.51,0,1.07-.2,1.35-.33v3.74c-.41.18-1.43.41-2.78.41-2.32,0-4.28-1.12-4.28-4.2v-14.49Z"/>
        <path class="cls-1" d="m102.64,92.17c0,.74-.1,1.45-.13,1.68h-7.77c.18,1.35,1.32,2.04,3.06,2.04,1.86,0,3.79-.56,4.3-.82v3.79c-.69.33-2.39.79-4.74.79-4.56,0-7.33-2.83-7.33-6.72s2.85-6.72,6.6-6.72c4.02,0,6.01,2.8,6.01,5.96Zm-6.06-2.47c-1.2,0-1.83.92-1.86,2.06h3.64c.03-1.15-.56-2.06-1.78-2.06Z"/>
        <path class="cls-1" d="m104.7,86.57h4.12c0,.33.05.66.08.97.03.33.03.59.08.79.76-1.15,2.11-2.11,3.67-2.11.41,0,.79.05.81.05v4.43s-.36-.18-.92-.18c-1.66,0-3.31,1.2-3.31,3.44v5.35h-4.53v-12.73Z"/>
      </g>
      <g>
        <path class="cls-1" d="m56.47,0C35.9,0,19.24,16.67,19.24,37.23s16.67,37.23,37.23,37.23,37.23-16.67,37.23-37.23S77.03,0,56.47,0Zm0,56.95c-10.59,0-19.17-8.58-19.17-19.17s8.58-19.17,19.17-19.17,19.17,8.58,19.17,19.17-8.58,19.17-19.17,19.17Z"/>
        <path class="cls-1" d="m34.59,67.35c6.17,4.65,14.81,7.11,21.88,7.11,7.51,0,17.97-3.54,21.88-7.11,0,0,0,0,0,0l-21.89-31.41-21.88,31.41s0,0,0,0Z"/>
      </g>
    </g>
  </g>
</svg>