<?xml version="1.0" encoding="UTF-8"?>
<svg id="_Слой_2" data-name="Слой 2" xmlns="http://www.w3.org/2000/svg" viewBox="0 0 129.32 104.83">
  <defs>
    <style>
      .cls-1 {
        fill: #1d70b7;
      }

      .cls-1, .cls-2, .cls-3, .cls-4 {
        stroke-width: 0px;
      }

      .cls-2 {
        fill: #bc4517;
      }

      .cls-3 {
        opacity: .2;
      }

      .cls-3, .cls-4 {
        fill: #fff;
      }

      .cls-4 {
        opacity: 0;
      }
    </style>
  </defs>
  <g id="_Слой_1-2" data-name="Слой 1">
    <g>
      <path class="cls-2" d="m55.27,20.34c0-19.95,0,.99-.03-18.95,0-1.13.36-1.39,1.41-1.38,5.33.05,10.65.07,15.98.03,1.13,0,1.45.32,1.45,1.48-.03,38.15-.02,21.79-.01,59.94,0,1.89-.01,3.78.03,5.67.01.65-.22.95-.85,1.09-5.7,1.27-11.39,1.17-17.08-.06-.89-.19-.89-.71-.89-1.38,0-7.67,0-15.34,0-23.01,0-12.35,0-11.07,0-23.42Z"/>
      <path class="cls-2" d="m49.84,35.82c0,9.59,0,19.19,0,28.78,0,1.33-.02,1.34-1.21.78-6.94-3.3-12.44-8.19-16.31-14.87-.39-.67-.58-1.36-.58-2.14.02-13.82.03-14.01,0-27.83,0-1.06.24-1.43,1.36-1.41,5.02.06,10.05.03,15.07.04,1.68,0,1.68.01,1.68,1.64,0,9.56,0,5.47,0,15.03h-.02Z"/>
      <path class="cls-2" d="m79.57,66.03v-5.6c0-14.24.01-14.85-.03-29.09,0-1.05.28-1.31,1.31-1.29,4.64.07,9.28.05,13.92.05,2.73,0,2.73-.01,2.74,2.73.03,9.78.05,5.93.08,15.71,0,.54-.02,1.06-.29,1.53-4.14,7.19-10.04,12.42-17.74,15.96Z"/>
      <path class="cls-1" d="m92.06,65.38c-11.2,9.05-23.99,11.97-37.94,8.42-13.2-3.36-22.85-11.56-29.04-23.59-.11-.22-.21-.44-.32-.67-4.45.46-8.83,1.01-13.12,1.62-.09.17-.22.34-.45.52-3.48,2.84-6.9,5.76-10.35,8.64-.64.54-1.18,1.02-.61,1.98,2.04,3.43,4.05,6.88,6.03,10.35.53.93,1.05,1.14,2.08.67,3.98-1.8,8-3.48,11.99-5.25.82-.36,1.34-.35,2,.37,2.41,2.66,5.08,5.07,7.95,7.23.67.5.81.89.49,1.66-1.86,4.36-3.63,8.76-5.52,13.11-.49,1.12-.25,1.67.75,2.26,2.93,1.71,5.81,3.5,8.71,5.26,1.19.72,1.38.67,2.19-.45,2.88-3.97,5.77-7.92,8.64-11.9.46-.64.83-.84,1.64-.5,2.72,1.13,5.56,1.92,8.46,2.37,1.14.18,1.39.63,1.47,1.64.34,4.82.75,9.63,1.13,14.45.06.8.4,1.25,1.27,1.25,3.48-.01,6.95,0,10.43,0,.77,0,1.19-.32,1.24-1.13.13-2.07.29-4.14.46-6.21.23-2.9.5-5.79.71-8.69.06-.87.42-1.15,1.3-1.3,2.93-.49,5.83-1.22,8.58-2.36.97-.4,1.4-.12,1.92.61,2.84,3.95,5.72,7.88,8.55,11.83.59.82,1.09,1.05,2.04.46,2.87-1.81,5.79-3.52,8.69-5.29,1.43-.87,1.41-.92.75-2.5-1.82-4.33-3.62-8.68-5.43-13.02-.2-.47-.42-.84.21-1.31,3.02-2.22,5.82-4.7,8.27-7.54.5-.58.94-.67,1.65-.36,3.99,1.78,8,3.5,12,5.25,1.47.64,1.58.62,2.4-.79,1.91-3.29,3.77-6.62,5.73-9.88.53-.88.39-1.4-.35-2-1.97-1.59-3.9-3.22-5.84-4.84-1.63-1.36-3.23-2.76-4.87-4.11-.22-.18-.34-.34-.39-.52-4.15-.59-8.37-1.12-12.67-1.57-2.95,6.03-7.25,11.31-12.81,15.81Z"/>
      <path class="cls-3" d="m41.9,19.16c-2.93,0-5.86,0-8.79-.04-1.12-.01-1.37.36-1.36,1.41.03,13.82.02,14.01,0,27.83,0,.79.19,1.47.58,2.14,2.51,4.35,5.73,7.92,9.57,10.8V19.16Z"/>
      <path class="cls-3" d="m79.57,66.04c3.35-1.54,6.34-3.42,9.01-5.62v-30.32c-2.58,0-5.15-.01-7.73-.05-1.03-.01-1.32.24-1.31,1.29.04,14.24.03,14.85.03,29.09v5.6Z"/>
      <path class="cls-3" d="m65.31.06c-2.88,0-5.77-.02-8.65-.05-1.05-.01-1.41.25-1.41,1.38.04,19.95.03-.99.03,18.95,0,12.35,0,11.07,0,23.42,0,7.67,0,15.34,0,23.01,0,.67,0,1.19.89,1.38,3.05.66,6.09.98,9.14.95V.06Z"/>
      <path class="cls-4" d="m104.91,49.57c-2.95,6.03-7.25,11.31-12.81,15.81-11.2,9.05-23.99,11.97-37.94,8.42-13.2-3.36-22.85-11.56-29.04-23.59-.11-.22-.21-.44-.32-.67-2.18.23-4.35.48-6.49.74,8,18.02,26.04,30.6,47.03,30.6s38.92-12.5,46.95-30.44c-2.44-.31-4.9-.6-7.39-.86Z"/>
    </g>
  </g>
</svg>