<?xml version="1.0" encoding="UTF-8"?>
<svg id="_Слой_2" data-name="Слой 2" xmlns="http://www.w3.org/2000/svg" viewBox="0 0 371.84 70.53">
  <defs>
    <style>
      .cls-1 {
        fill: #1d70b7;
      }

      .cls-1, .cls-2 {
        stroke-width: 0px;
      }

      .cls-2 {
        fill: #bc4517;
      }
    </style>
  </defs>
  <g id="_Слой_1-2" data-name="Слой 1">
    <g>
      <path class="cls-2" d="m36.6,0v62.5h-8.04V8.04H8.03v54.46H0V0h36.6Z"/>
      <path class="cls-2" d="m73.56,13.39l6.25,49.1h-7.68l-1.7-13.03h-14.82l-1.7,13.03h-7.68l6.25-49.1h21.07Zm-3.84,28.39l-2.59-20.71h-8.21l-2.59,20.71h13.39Z"/>
      <path class="cls-2" d="m120.7,13.39v32.85h-23.57v16.25h-7.68V13.39h31.25Zm-23.57,25.18h15.89v-17.5h-15.89v17.5Z"/>
      <path class="cls-2" d="m158.2,13.39v7.68h-11.79v41.43h-7.68V21.07h-11.79v-7.68h31.25Z"/>
      <path class="cls-1" d="m200.96,0v62.5h-8.04V8.04h-13.57l-7.32,54.46h-11.16v-8.04h4.29L172.39,0h28.57Z"/>
      <path class="cls-1" d="m248.01,13.39v49.1h-7.68V27.68l-19.2,34.82h-7.68V13.39h7.68v34.82l19.2-34.82h7.68Z"/>
      <path class="cls-1" d="m289.61,13.39v41.43h4.55v15.71h-7.68v-8.04h-23.48v8.04h-7.68v-15.71h3.66l5.71-41.43h24.91Zm-7.68,41.43V21.07h-11.34l-4.64,33.75h15.98Z"/>
      <path class="cls-1" d="m332.11,13.39v7.68h-21.34v12.86h10.62v7.68h-10.62v13.21h21.34v7.68h-29.02V13.39h29.02Z"/>
      <path class="cls-1" d="m371.84,13.39v32.85h-23.57v16.25h-7.68V13.39h31.25Zm-23.57,25.18h15.89v-17.5h-15.89v17.5Z"/>
    </g>
  </g>
</svg>