<?xml version="1.0" encoding="UTF-8"?>
<svg id="_Слой_2" data-name="Слой 2" xmlns="http://www.w3.org/2000/svg" viewBox="0 0 141.51 108.23">
  <defs>
    <style>
      .cls-1 {
        fill: #fff;
        stroke-width: 0px;
      }

      .cls-2 {
        opacity: .6;
      }
    </style>
  </defs>
  <g id="_Слой_1-2" data-name="Слой 1">
    <g class="cls-2">
      <path class="cls-1" d="m71.75,0c11.66.02,21.85,8.05,24.56,19.37.39,1.64.64,3.3.67,4.99,0,.37.12.55.46.71,5.93,2.8,10.22,7.21,12.79,13.25,1.59,3.73,2.17,7.64,1.87,11.68-.76,10.12-7.65,18.89-17.39,22.06-3.61,1.18-7.3,1.5-11.06,1.02-4.23-.55-8.06-2.08-11.52-4.57-.45-.32-.38-.27-.77,0-3.07,2.2-6.44,3.69-10.16,4.35-6.26,1.11-12.18.11-17.62-3.2-6.3-3.83-10.31-9.4-11.74-16.64-1.58-7.98.33-15.17,5.57-21.43,2.33-2.78,5.17-4.92,8.46-6.45.46-.22.64-.46.66-.98.13-3.87,1.15-7.51,3-10.9,2.35-4.32,5.69-7.69,9.98-10.1,3.08-1.73,6.4-2.73,9.92-3.07.77-.07,1.55-.12,2.33-.11Zm22.64,23.87c-.24-6.28-3.84-14.24-11.85-18.59-7.74-4.2-17.27-3.5-24.32,1.73-6.59,4.89-9.1,12.32-9.08,16.84.14-.03.28-.06.41-.1,2.66-.77,5.37-1.1,8.13-.96.46.02.92.01,1.38.1.25.05.45,0,.56-.26.06-.15.16-.28.24-.41,1.18-1.94,2.46-3.8,4.02-5.46,1.22-1.3,2.56-2.44,4.18-3.22,1.43-.69,2.93-1.02,4.53-.84,1.23.14,2.37.55,3.45,1.16,1.57.89,2.88,2.11,4.07,3.45,1.43,1.63,2.64,3.42,3.73,5.28.15.25.3.34.59.3,2.41-.26,4.8-.14,7.18.31.92.17,1.82.42,2.77.67Zm2.53,3.82c-.03.23-.06.43-.09.62-.03.21-.04.42-.08.63-.65,4.23-2.23,8.07-4.8,11.48-.22.29-.26.52-.15.86.8,2.35,1.51,4.72,2.19,7.1,1.76,6.16,3.3,12.37,4.6,18.64.03.13.02.28.16.36,6.35-3.75,11.75-11.79,10.76-21.68-.92-9.19-7.17-15.57-12.61-18.01Zm-52.12,39.76c.2-.92.38-1.77.57-2.61,1.17-5.38,2.5-10.71,4.01-16,.72-2.54,1.48-5.06,2.32-7.56.11-.32.09-.55-.13-.82-.34-.43-.65-.88-.95-1.34-2.16-3.3-3.48-6.91-3.95-10.82-.09-.74-.09-.68-.69-.36-.08.04-.16.08-.23.13-4.46,2.48-7.78,6.02-9.89,10.68-2.05,4.55-2.53,9.3-1.46,14.16,1.14,5.22,3.86,9.5,8,12.87.74.6,1.51,1.16,2.41,1.68Zm24.9-.96c-.18-.17-.36-.31-.52-.47-4.7-4.72-7.21-10.42-7.51-17.07-.02-.38-.14-.56-.47-.71-2.34-1.06-4.45-2.47-6.36-4.19-.34-.31-.67-.62-1.01-.93-.18.19-.2.41-.26.61-2.27,7.12-4.16,14.34-5.74,21.64-.21.99-.4,1.98-.62,2.96-.06.26-.02.45.26.53.08.02.16.07.24.1,3.58,1.52,7.3,2.07,11.16,1.69,3.78-.37,7.22-1.65,10.37-3.75.14-.1.31-.17.45-.4Zm20.04-23.4c-.12.08-.17.1-.2.13-2.15,2.13-4.59,3.82-7.34,5.07-.3.13-.37.32-.37.62,0,1.21-.14,2.4-.36,3.59-.97,5.27-3.38,9.79-7.18,13.57-.52.52-.52.52.11.93,5.29,3.43,11.03,4.5,17.21,3.28,1.46-.29,2.87-.75,4.24-1.34.53-.23.53-.23.41-.81-.11-.57-.22-1.14-.35-1.72-1.42-6.68-3.1-13.29-5.07-19.83-.35-1.15-.71-2.29-1.09-3.49Zm-17.88,4.92c.67,0,1.48-.03,2.29-.12,1.62-.18,3.21-.52,4.76-1.03.26-.08.4-.2.35-.48-.02-.14-.01-.28-.03-.42-.18-1.69-.5-3.36-1.03-4.98-1.22-3.71-3.27-6.88-6.11-9.56-.34-.32-.35-.32-.68,0-.92.86-1.77,1.78-2.54,2.78-2.7,3.56-4.27,7.55-4.62,12.01-.04.54-.04.54.47.7,2.27.73,4.6,1.13,7.13,1.1Zm-7.52,1.45c-.13.17-.08.31-.07.45.05.94.2,1.87.4,2.78.99,4.62,3.2,8.55,6.61,11.81.49.47.39.54.95,0,3.83-3.69,6.14-8.17,6.89-13.44.07-.52.19-1.04.11-1.64-4.98,1.49-9.95,1.49-14.89.02Zm5.36-19.94c-.07-.08-.09-.11-.12-.13-2.57-1.8-5.39-3.02-8.47-3.65-.28-.06-.38.04-.49.25-.4.83-.83,1.64-1.22,2.47-1.75,3.68-3.19,7.48-4.56,11.31-.14.4-.05.65.22.93,1.83,1.94,3.9,3.54,6.27,4.76.12.06.23.17.42.1.68-6.3,3.34-11.65,7.95-16.06Zm12.05,16.09c.27,0,.42-.14.59-.23,2.32-1.23,4.36-2.82,6.15-4.74.26-.28.28-.51.16-.84-.52-1.39-1-2.8-1.53-4.19-1.23-3.24-2.59-6.43-4.19-9.51-.22-.42-.22-.43-.68-.33-2.86.59-5.5,1.71-7.92,3.33-.64.43-.62.32-.06.87,3.27,3.23,5.53,7.05,6.73,11.49.37,1.35.61,2.72.75,4.14Zm-19.6-22.3c.12.06.16.09.21.11,3.31.78,6.35,2.16,9.09,4.18.27.2.42.13.64-.03,2.69-1.96,5.66-3.32,8.9-4.11.12-.03.25-.02.32-.18-.03-.07-.06-.15-.11-.23-1.01-1.65-2.11-3.23-3.44-4.64-.96-1.03-2.02-1.93-3.29-2.56-1.82-.9-3.64-.9-5.46,0-.6.3-1.17.67-1.69,1.09-1.32,1.04-2.39,2.3-3.38,3.65-.64.87-1.23,1.76-1.8,2.72Zm-4.05,2.09c-.1-.03-.15-.06-.19-.06-.32-.02-.64-.06-.95-.06-2.42-.02-4.8.3-7.11,1.04-.88.28-.81.05-.71,1.08.34,3.64,1.51,7.01,3.47,10.09.06.1.1.23.29.25,1.5-4.2,3.16-8.35,5.21-12.34Zm27.31-.03c1.04,2.05,1.97,4.09,2.84,6.16.86,2.05,1.62,4.15,2.43,6.29.12-.15.17-.21.22-.29,2.05-3.22,3.23-6.74,3.54-10.55.03-.42.03-.43-.37-.56-2.28-.76-4.63-1.13-7.03-1.16-.51,0-1.02,0-1.62.1Z"/>
      <path class="cls-1" d="m120.04,91.54c.18-.05.22-.15.29-.23,1.4-1.62,3.94-2.06,5.81-1.01.72.4,1.22,1,1.57,1.75.45.96.61,1.99.68,3.04.1,1.59.11,3.18-.17,4.76-.1.54-.25,1.07-.47,1.57-.69,1.58-1.92,2.41-3.62,2.54-.66.05-1.31,0-1.94-.19-.61-.18-1.14-.47-1.6-.91-.14-.13-.28-.26-.42-.38-.16.13-.1.28-.1.41,0,1.52,0,3.04,0,4.57,0,.44,0,.44-.43.45-.58,0-1.17,0-1.75,0-.26,0-.41-.06-.38-.35.01-.09,0-.18,0-.27,0-5.51,0-11.01,0-16.52,0-.07,0-.14,0-.21.01-.39.01-.4.38-.4.57,0,1.13,0,1.7,0,.28,0,.37.1.37.37,0,.33-.02.67.09,1.01Zm.03,5.15c0,.73,0,1.28,0,1.83,0,.54.11,1.05.32,1.55.49,1.15,1.53,1.75,2.86,1.67,1.14-.07,1.87-.69,2.25-1.92.04-.12.07-.24.09-.36.27-1.47.27-2.95.13-4.44-.05-.53-.16-1.05-.36-1.54-.3-.73-.81-1.23-1.59-1.42-1.72-.42-3.31.62-3.61,2.38-.14.81-.06,1.62-.08,2.25Z"/>
      <path class="cls-1" d="m133.17,102.49c-.08.24-.04.43-.04.62,0,1.47,0,2.94,0,4.41,0,.38-.01.39-.38.39-.6,0-1.2,0-1.81,0-.26,0-.41-.06-.37-.35.01-.09,0-.18,0-.27,0-5.51,0-11.01,0-16.52,0-.07,0-.14,0-.21.01-.39.01-.4.38-.4.57,0,1.13,0,1.7,0,.28,0,.37.1.37.37,0,.33,0,.67.07.99.13.02.18-.06.23-.12,1.09-1.37,2.54-1.78,4.21-1.6,1.9.2,3.03,1.3,3.55,3.1.21.72.32,1.45.36,2.2.1,1.75.13,3.5-.27,5.23-.1.43-.25.85-.43,1.25-.71,1.5-1.91,2.27-3.55,2.4-.53.04-1.06.02-1.59-.09-.72-.15-1.38-.45-1.92-.96-.15-.14-.27-.33-.51-.42Zm-.04-5.63c0,.65,0,1.31,0,1.96,0,.18.04.35.08.52.26,1.43,1.35,2.38,2.75,2.4,1.47.02,2.35-.71,2.67-2.27.28-1.4.27-2.81.17-4.22-.04-.6-.15-1.19-.38-1.75-.3-.74-.81-1.23-1.59-1.43-1.68-.43-3.27.58-3.61,2.3-.16.82-.06,1.66-.08,2.49Z"/>
      <path class="cls-1" d="m12.01,91.45c.22-.04.29-.2.4-.3,1.32-1.3,2.9-1.64,4.65-1.25,1.5.33,2.38,1.41,2.59,3.06.04.33.07.67.07,1.01,0,3.03,0,6.05,0,9.08,0,.09,0,.18,0,.27,0,.18-.08.25-.26.25-.69,0-1.38,0-2.07,0-.18,0-.25-.1-.25-.27,0-.14,0-.28,0-.42,0-2.71,0-5.41,0-8.12,0-.48,0-.95-.16-1.42-.21-.63-.65-1-1.28-1.14-1.41-.31-2.72.35-3.35,1.71-.28.6-.41,1.24-.41,1.9,0,2.37,0,4.74,0,7.11,0,.73.08.63-.66.64-.53,0-1.06,0-1.59,0-.22,0-.33-.07-.32-.31,0-.12,0-.25,0-.37,0-5.61,0-11.22,0-16.83,0-.09,0-.18,0-.27-.03-.29.11-.36.37-.36.55.01,1.1,0,1.65,0,.57,0,.56-.04.56.54,0,1.63,0,3.26,0,4.88,0,.19-.05.39.07.6Z"/>
      <path class="cls-1" d="m94.07,90.16c-.1.26-.26.37-.4.51-1.14,1.17-2.28,2.33-3.42,3.49-.32.33-.32.33-.11.76,1.29,2.58,2.58,5.16,3.87,7.74.13.27.26.54.4.83-.26.1-.49.06-.71.06-.58,0-1.17-.02-1.75,0-.32.01-.47-.1-.61-.38-.77-1.61-1.56-3.21-2.35-4.82-.27-.56-.55-1.11-.82-1.67-.04-.08-.07-.16-.14-.2-.56.54-1.12,1.08-1.67,1.62-.15.14-.1.33-.1.51,0,1.43,0,2.87,0,4.3,0,.12,0,.25,0,.37,0,.17-.07.26-.25.26-.67,0-1.35,0-2.02,0-.2,0-.3-.07-.29-.28,0-.12,0-.25,0-.37,0-5.63,0-11.26,0-16.89,0-.63-.06-.59.61-.59.5,0,.99,0,1.49,0,.46,0,.46,0,.46.47,0,2.64,0,5.27,0,7.91v1.14c.27-.06.37-.23.5-.36,1.32-1.34,2.63-2.67,3.93-4.03.3-.31.59-.43,1.02-.42.76.03,1.52,0,2.34,0Z"/>
      <path class="cls-1" d="m63.72,97.68c-1.2,0-2.41,0-3.61,0-.41,0-.41.01-.41.41,0,.68.07,1.34.31,1.98.34.88.96,1.43,1.89,1.6.81.15,1.62.15,2.39-.23.46-.23.82-.56,1.1-.98.14-.21.27-.23.48-.11.45.25.91.47,1.37.71.37.19.37.2.17.54-.62,1.03-1.48,1.75-2.65,2.07-1.34.38-2.7.41-4.04.05-1.45-.38-2.45-1.3-3-2.7-.26-.66-.42-1.35-.48-2.06-.15-1.79-.15-3.57.26-5.33.31-1.34.97-2.47,2.18-3.2.67-.4,1.4-.58,2.17-.65,1.05-.1,2.09-.07,3.09.32,1.14.44,1.9,1.26,2.34,2.39.39.99.45,2.03.5,3.08.03.53.01,1.06.01,1.59,0,.5,0,.5-.49.5-1.19,0-2.37,0-3.56,0Zm-1.22-1.91c.8,0,1.59-.01,2.39,0,.29,0,.36-.1.36-.37-.01-.43-.05-.85-.12-1.26-.29-1.74-1.25-2.46-3.01-2.29-.89.08-1.51.53-1.9,1.33-.33.7-.44,1.45-.49,2.21-.02.37,0,.38.38.38.8,0,1.59,0,2.39,0Z"/>
      <path class="cls-1" d="m72.85,91.73c.24-.24.4-.4.55-.56,1.34-1.33,2.95-1.68,4.74-1.25,1.44.34,2.18,1.36,2.46,2.76.07.36.11.73.11,1.11,0,3.1,0,6.19,0,9.29,0,.47,0,.48-.45.48-.55,0-1.1,0-1.65,0-.45,0-.45,0-.46-.48,0-2.34,0-4.67,0-7.01,0-.72.04-1.45-.06-2.17-.15-1.09-.64-1.61-1.72-1.76-1.23-.17-2.41.48-2.99,1.67-.3.61-.45,1.26-.45,1.95,0,2.39,0,4.78,0,7.17,0,.71.04.64-.62.64-.55,0-1.1,0-1.65,0-.23,0-.33-.08-.31-.31,0-.11,0-.21,0-.32,0-4.05,0-8.1,0-12.16,0-.07,0-.14,0-.21.01-.39.01-.39.38-.4.57,0,1.13.01,1.7,0,.29-.01.36.12.36.37,0,.36.02.72.04,1.2Z"/>
      <path class="cls-1" d="m112.37,102.05c-.26.26-.51.54-.79.78-1.5,1.27-3.19,1.45-4.98.79-1.1-.4-1.68-1.31-1.95-2.42-.09-.36-.13-.73-.13-1.11,0-3.15,0-6.3,0-9.45,0-.47,0-.48.46-.48.55,0,1.1,0,1.65,0,.45,0,.45,0,.46.48,0,2.34,0,4.67,0,7.01,0,.55,0,1.1,0,1.65.03,1.8,1.3,2.72,3.02,2.16.95-.31,1.57-1,1.94-1.91.23-.56.3-1.16.3-1.77,0-2.3,0-4.6,0-6.9,0-.12,0-.25,0-.37-.02-.24.07-.35.33-.35.64.01,1.27.01,1.91,0,.26,0,.35.1.33.34,0,.09,0,.18,0,.27,0,4.07,0,8.14,0,12.21,0,.05,0,.11,0,.16,0,.4,0,.41-.42.41-.57,0-1.13,0-1.7,0-.22,0-.32-.08-.32-.31,0-.38,0-.77,0-1.15-.04-.01-.08-.03-.12-.04Z"/>
      <path class="cls-1" d="m27.02,99.26c.14-.36.27-.72.41-1.07.94-2.5,1.88-5,2.83-7.5.22-.58.06-.53.79-.53.62,0,1.24,0,1.83,0,.1.21,0,.35-.06.49-1.83,4.68-3.65,9.36-5.48,14.04-.26.66-.55,1.3-.94,1.9-.72,1.1-1.73,1.63-3.04,1.64-1.03,0-1.03.01-1.03-.99,0-.35,0-.71,0-1.06,0-.17.06-.27.25-.24,1.26.18,1.94-.53,2.39-1.58.06-.15.11-.31.2-.43.49-.68.36-1.34.09-2.08-1.37-3.7-2.7-7.41-4.04-11.12-.06-.16-.15-.32-.12-.55.77,0,1.55,0,2.32,0,.24,0,.28.17.34.34.3.83.6,1.67.9,2.5.75,2.08,1.5,4.16,2.24,6.24l.11.03Z"/>
      <path class="cls-1" d="m50.18,103.97c-1.04.02-2.04-.17-2.98-.65-.86-.44-1.53-1.08-1.96-1.95-.21-.43-.21-.43.2-.61.45-.2.9-.41,1.36-.61.35-.15.36-.16.58.19.24.38.52.72.9.96,1.13.71,2.33.7,3.5.19.93-.41,1.11-1.63.42-2.38-.25-.27-.55-.45-.88-.57-.99-.38-1.98-.76-2.97-1.14-.65-.25-1.24-.59-1.77-1.06-.52-.47-.85-1.04-.98-1.72-.32-1.73.28-3.88,2.72-4.58,1.31-.37,2.62-.4,3.93-.05,1.17.31,2.07.97,2.63,2.06.17.34.17.35-.17.52-.48.23-.96.45-1.43.69-.19.1-.31.11-.42-.11-.81-1.59-2.67-1.57-3.8-1.19-.64.21-1.02.67-1.1,1.36-.08.68.22,1.16.77,1.52.61.4,1.3.64,1.99.86.66.21,1.32.39,1.96.66,2.34.96,3.18,3.71,1.77,5.82-.51.76-1.24,1.19-2.08,1.47-.71.23-1.44.35-2.19.32Z"/>
      <path class="cls-1" d="m38.68,103.97c-1.11.02-2.2-.23-3.21-.82-.77-.45-1.33-1.09-1.73-1.89-.11-.22-.09-.35.15-.46.52-.22,1.04-.45,1.55-.69.2-.09.31-.08.43.12.87,1.52,2.4,1.83,4.02,1.43.77-.19,1.18-.64,1.25-1.27.08-.77-.22-1.35-.91-1.7-.62-.31-1.27-.54-1.92-.78-.55-.21-1.09-.41-1.64-.62-.48-.19-.92-.46-1.32-.78-1.1-.85-1.4-2.01-1.22-3.32.21-1.54,1.06-2.6,2.55-3.08,1.56-.51,3.14-.51,4.68.07.93.35,1.63.98,2.08,1.87.17.33.16.35-.18.52-.47.24-.96.46-1.43.7-.2.1-.3.07-.42-.12-.85-1.31-2.48-1.79-3.9-1.16-.55.25-.9.67-.98,1.29-.08.65.15,1.14.68,1.5.46.31.96.53,1.48.71.74.25,1.48.47,2.22.73.6.21,1.17.49,1.65.94.45.43.77.92.93,1.52.35,1.34.23,2.59-.64,3.72-.37.48-.85.8-1.39,1.04-.87.38-1.79.54-2.78.53Z"/>
      <path class="cls-1" d="m1.72,96.12c0-1.15,0-2.3,0-3.45,0-.48,0-.48-.5-.48-.32,0-.64,0-.96,0-.18,0-.26-.07-.26-.25,0-.5,0-.99,0-1.49,0-.2.09-.29.29-.28.32,0,.64,0,.96,0,.47,0,.47,0,.48-.46,0-1.19,0-2.37,0-3.56,0-.11,0-.21,0-.32.01-.38.01-.39.38-.4.58,0,1.17,0,1.75,0,.41,0,.42,0,.42.41,0,1.22,0,2.44,0,3.66,0,.71-.07.65.66.66.57,0,1.13,0,1.7,0,.38,0,.39,0,.4.37,0,.41,0,.81,0,1.22,0,.41,0,.42-.41.42-.64,0-1.27,0-1.91,0-.43,0-.44.01-.44.45,0,2.21,0,4.43,0,6.64,0,.32.04.64.1.95.13.7.58,1.11,1.29,1.22.41.06.81.04,1.22,0,.2-.02.3.04.3.26,0,.53,0,1.06,0,1.59,0,.17-.07.25-.25.27-1.01.12-2.02.12-2.99-.2-1.1-.37-1.75-1.16-2.01-2.27-.14-.61-.2-1.22-.21-1.84,0-1.04,0-2.09,0-3.13h0Z"/>
      <path class="cls-1" d="m98.55,92.63c.24-.1.28-.29.37-.43.58-.88,1.34-1.55,2.36-1.88.37-.12.76-.18,1.15-.17.39,0,.4,0,.4.37,0,.62,0,1.24,0,1.86,0,.26-.09.35-.34.32-.1-.01-.21,0-.32,0-1.92-.1-2.96,1.32-3.27,2.54-.19.74-.26,1.5-.26,2.26,0,1.8,0,3.61,0,5.41,0,.12,0,.25,0,.37.01.21-.09.28-.29.28-.65,0-1.31,0-1.96,0-.26,0-.35-.11-.33-.35,0-.09,0-.18,0-.27,0-4.05,0-8.1,0-12.15,0-.05,0-.11,0-.16,0-.46,0-.46.47-.47.53,0,1.06.01,1.59,0,.27,0,.38.08.37.36,0,.62,0,1.24.02,1.86,0,.07.02.14.04.26Z"/>
    </g>
  </g>
</svg>