<?xml version="1.0" encoding="UTF-8"?>
<svg id="_Слой_2" data-name="Слой 2" xmlns="http://www.w3.org/2000/svg" viewBox="0 0 459.94 60.98">
  <defs>
    <style>
      .cls-1 {
        fill: #1d1d1b;
        stroke-width: 0px;
      }
    </style>
  </defs>
  <g id="_Слой_1-2" data-name="Слой 1">
    <g>
      <path class="cls-1" d="m14.25.4v4.87h-2.74v-2.13h-7v15.83h7v-2.13h2.74v4.87H1.77V.4h12.48Z"/>
      <path class="cls-1" d="m27.95,4.96v2.62h-7.28v4.38h3.62v2.62h-3.62v4.5h7.28v2.62h-9.89V4.96h9.89Z"/>
      <path class="cls-1" d="m41.49,4.96v11.2h-8.04v5.54h-2.62V4.96h10.65Zm-8.04,8.58h5.42v-5.97h-5.42v5.97Z"/>
      <path class="cls-1" d="m56.14,4.96v6.7l-2.07,1.67,2.07,1.67v6.7h-10.84V4.96h10.84Zm-8.22,2.62v4.44h4.08l1.52-1.22v-3.23h-5.6Zm0,11.51h5.6v-3.23l-1.52-1.22h-4.08v4.44Z"/>
      <path class="cls-1" d="m72.18,4.96v16.74h-2.62v-11.87l-6.54,11.87h-2.62V4.96h2.62v11.87l6.54-11.87h2.62Z"/>
      <path class="cls-1" d="m87.1,4.96v4.75h-2.62v-2.13h-5.42v11.51h5.42v-2.13h2.62v4.75h-10.65V4.96h10.65Z"/>
      <path class="cls-1" d="m108.68,4.96v6.7l-2.07,1.67,2.07,1.67v6.7h-10.84V4.96h10.84Zm-8.22,2.62v4.44h4.08l1.52-1.22v-3.23h-5.6Zm0,11.51h5.6v-3.23l-1.52-1.22h-4.08v4.44Z"/>
      <path class="cls-1" d="m115.56,4.96v6.82h7.82v9.92h-10.44V4.96h2.62Zm5.21,14.12v-4.69h-5.21v4.69h5.21Zm8.43-14.12v16.74h-2.62V4.96h2.62Z"/>
      <path class="cls-1" d="m142.75,4.96v2.62h-6.67v14.12h-2.62V4.96h9.28Z"/>
      <path class="cls-1" d="m156.23,4.96v16.74h-10.75V4.96h10.75Zm-8.13,14.12h5.51V7.58h-5.51v11.51Z"/>
      <path class="cls-1" d="m170.42,4.96v14.12h1.55v5.36h-2.62v-2.74h-8.01v2.74h-2.62v-5.36h1.25l1.95-14.12h8.49Zm-2.62,14.12V7.58h-3.87l-1.58,11.51h5.45Z"/>
      <path class="cls-1" d="m177.64,4.96v7h5.51v-7h2.62v16.74h-2.62v-7.12h-5.51v7.12h-2.62V4.96h2.62Z"/>
      <path class="cls-1" d="m192.65,4.96v6.82h7.82v9.92h-10.44V4.96h2.62Zm5.21,14.12v-4.69h-5.21v4.69h5.21Zm8.43-14.12v16.74h-2.62V4.96h2.62Z"/>
      <path class="cls-1" d="m214.44,14.64l-2.37,7.06h-2.83l2.89-8.37-2.95-8.37h2.83l2.44,7.06h1.92l2.44-7.06h2.83l-2.95,8.37,2.89,8.37h-2.83l-2.37-7.06h-1.92Z"/>
      <path class="cls-1" d="m241.17,4.96v4.63l-4.5,3.74,4.5,3.74v4.63h-10.65v-2.62h8.04v-1.19l-5.36-4.57,5.36-4.57v-1.19h-8.04v-2.62h10.65Z"/>
      <path class="cls-1" d="m253.32,4.96l2.13,16.74h-2.62l-.58-4.44h-5.05l-.58,4.44h-2.62l2.13-16.74h7.18Zm-1.31,9.68l-.88-7.06h-2.8l-.88,7.06h4.57Z"/>
      <path class="cls-1" d="m261.36,21.7h-2.62V4.96h2.62v7h3.07l3.01-7h2.71l-3.44,8.04,3.71,8.71h-2.92l-3.08-7.12h-3.07v7.12Z"/>
      <path class="cls-1" d="m275.73,4.96v7.82h5.21v-7.82h2.62v16.74h-10.44v-2.62h7.82v-3.68h-7.82V4.96h2.62Z"/>
      <path class="cls-1" d="m298.47,4.96v16.74h-2.62V7.58h-5.42v14.12h-2.62V4.96h10.65Z"/>
      <path class="cls-1" d="m313.47,4.96v16.74h-10.75V4.96h10.75Zm-8.13,14.12h5.51V7.58h-5.51v11.51Z"/>
      <path class="cls-1" d="m320.36,21.7h-2.62V4.96h2.62v7h3.07l3.01-7h2.71l-3.44,8.04,3.71,8.71h-2.92l-3.08-7.12h-3.07v7.12Z"/>
      <path class="cls-1" d="m348.76,4.96v4.63l-4.5,3.74,4.5,3.74v4.63h-10.65v-2.62h8.04v-1.19l-5.36-4.57,5.36-4.57v-1.19h-8.04v-2.62h10.65Z"/>
      <path class="cls-1" d="m360.91,4.96l2.13,16.74h-2.62l-.58-4.44h-5.05l-.58,4.44h-2.62l2.13-16.74h7.18Zm-1.31,9.68l-.88-7.06h-2.8l-.88,7.06h4.57Z"/>
      <path class="cls-1" d="m376.98,4.96v16.74h-2.62V7.58h-5.42v14.12h-2.62V4.96h10.65Z"/>
      <path class="cls-1" d="m383.4,4.96v7.82h5.42v-7.82h2.62v16.74h-2.62v-6.3h-8.04V4.96h2.62Z"/>
      <path class="cls-1" d="m404.04,4.96l2.13,16.74h-2.62l-.58-4.44h-5.05l-.58,4.44h-2.62l2.13-16.74h7.18Zm-1.31,9.68l-.88-7.06h-2.8l-.88,7.06h4.57Z"/>
      <path class="cls-1" d="m420.12,4.96v4.75h-2.62v-2.13h-5.42v11.51h5.42v-2.13h2.62v4.75h-10.65V4.96h10.65Z"/>
      <path class="cls-1" d="m432.75,4.96v2.62h-4.02v14.12h-2.62V7.58h-4.02v-2.62h10.65Z"/>
      <path class="cls-1" d="m445.23,4.96v2.62h-7.28v4.38h3.62v2.62h-3.62v4.5h7.28v2.62h-9.89V4.96h9.89Z"/>
      <path class="cls-1" d="m459.94,4.96v16.74h-2.62v-11.87l-6.54,11.87h-2.65V4.96h2.65v11.87l6.54-11.87h2.62Zm-2.74-4.96v2.62h-6.33V0h6.33Z"/>
      <path class="cls-1" d="m11.69,41.49v14.12h1.55v5.36h-2.62v-2.74H2.62v2.74H0v-5.36h1.25l1.95-14.12h8.49Zm-2.62,14.12v-11.51h-3.87l-1.58,11.51h5.45Z"/>
      <path class="cls-1" d="m26.42,41.49v16.74h-2.62v-14.12h-3.59l-1.95,14.12h-3.35v-2.62h1.22l1.95-14.12h8.34Z"/>
      <path class="cls-1" d="m41.25,58.24h-2.62v-5.72h-2.92l-2.62,5.72h-2.89l2.62-5.72h-2.22v-11.02h10.65v16.74Zm-8.04-14.12v5.78h5.42v-5.78h-5.42Z"/>
      <path class="cls-1" d="m62.74,41.49v16.74h-2.62v-14.12h-3.59l-1.95,14.12h-3.35v-2.62h1.22l1.95-14.12h8.34Z"/>
      <path class="cls-1" d="m78.79,41.49v16.74h-2.62v-11.87l-6.54,11.87h-2.62v-16.74h2.62v11.87l6.54-11.87h2.62Z"/>
      <path class="cls-1" d="m91.82,40.67v3.01h6.3v12.24h-6.3v3.35h-2.62v-3.35h-6.3v-12.24h6.3v-3.01h2.62Zm-6.3,5.63v7h3.68v-7h-3.68Zm6.3,7h3.68v-7h-3.68v7Z"/>
      <path class="cls-1" d="m111.21,41.49v2.62h-4.02v14.12h-2.62v-14.12h-4.02v-2.62h10.65Z"/>
      <path class="cls-1" d="m124.54,41.49v16.74h-10.75v-16.74h10.75Zm-8.13,14.12h5.51v-11.51h-5.51v11.51Z"/>
      <path class="cls-1" d="m139.64,41.49v6.7l-2.07,1.67,2.07,1.67v6.7h-10.84v-16.74h10.84Zm-8.22,2.62v4.44h4.08l1.52-1.22v-3.23h-5.6Zm0,11.51h5.6v-3.23l-1.52-1.22h-4.08v4.44Z"/>
      <path class="cls-1" d="m162.78,41.49v16.74h-2.62v-11.87l-6.54,11.87h-2.62v-16.74h2.62v11.87l6.54-11.87h2.62Z"/>
      <path class="cls-1" d="m182.87,58.24h-9.89v-2.62h7.28v-4.5h-3.99v-2.62h3.99v-4.38h-7.28v-2.62h9.89v16.74Z"/>
      <path class="cls-1" d="m197.79,41.49v4.75h-2.62v-2.13h-5.42v11.51h5.42v-2.13h2.62v4.75h-10.65v-16.74h10.65Z"/>
      <path class="cls-1" d="m204.06,58.24h-2.62v-16.74h2.62v7h3.07l3.01-7h2.71l-3.44,8.04,3.71,8.71h-2.92l-3.08-7.12h-3.07v7.12Z"/>
      <path class="cls-1" d="m224.15,41.49l2.13,16.74h-2.62l-.58-4.44h-5.05l-.58,4.44h-2.62l2.13-16.74h7.18Zm-1.31,9.68l-.88-7.06h-2.8l-.88,7.06h4.57Z"/>
      <path class="cls-1" d="m239.71,41.49v16.74h-2.62v-14.12h-3.59l-1.95,14.12h-3.35v-2.62h1.22l1.95-14.12h8.34Z"/>
      <path class="cls-1" d="m252.31,41.49l2.13,16.74h-2.62l-.58-4.44h-5.05l-.58,4.44h-2.62l2.13-16.74h7.18Zm-1.31,9.68l-.88-7.06h-2.8l-.88,7.06h4.57Z"/>
      <path class="cls-1" d="m266.71,41.49v2.62h-4.02v14.12h-2.62v-14.12h-4.02v-2.62h10.65Z"/>
      <path class="cls-1" d="m280.05,41.49v16.74h-10.75v-16.74h10.75Zm-8.13,14.12h5.51v-11.51h-5.51v11.51Z"/>
      <path class="cls-1" d="m294.96,41.49v11.2h-8.04v5.54h-2.62v-16.74h10.65Zm-8.04,8.58h5.42v-5.97h-5.42v5.97Z"/>
      <path class="cls-1" d="m309.52,41.49v16.74h-10.75v-16.74h10.75Zm-8.13,14.12h5.51v-11.51h-5.51v11.51Z"/>
      <path class="cls-1" d="m324.62,41.49v6.7l-2.07,1.67,2.07,1.67v6.7h-10.84v-16.74h10.84Zm-8.22,2.62v4.44h4.08l1.52-1.22v-3.23h-5.6Zm0,11.51h5.6v-3.23l-1.52-1.22h-4.08v4.44Z"/>
    </g>
  </g>
</svg>